<svg xmlns="http://www.w3.org/2000/svg" xmlns:xlink="http://www.w3.org/1999/xlink" version="1.1" x="0px" y="0px" viewBox="0 0 100 125" enable-background="new 0 0 100 100" xml:space="preserve"><g><path fill="#000000" d="M49.9999542,36.8657799c-7.2457199,0-13.1363716,5.8906517-13.1363716,13.1363716   c0,7.2414436,5.8906517,13.1363716,13.1363716,13.1363716c7.2414932,0,13.1363716-5.894928,13.1363716-13.1363716   C63.1363258,42.7564316,57.2414474,36.8657799,49.9999542,36.8657799z"/><path fill="#000000" d="M53.4625626,5.7411265c-1.5987587-2.5563064-5.3263512-2.5563064-6.9251137,0   c-8.1135635,12.97826-27.6706543,45.6760025-27.6706543,59.3039322c0,17.1931229,13.940033,31.1332092,31.1331596,31.1332092   s31.1332092-13.9400864,31.1332092-31.1332092C81.1331635,51.4171295,61.5717964,18.7193871,53.4625626,5.7411265z    M52.866539,67.1754532c-0.4240875,0.0704422-0.7291985,0.4473038-0.7291985,0.8772354v2.8709106   c0,0.4930191,0.3997192,0.8927383,0.8927345,0.8927383h5.5548058c1.1160774,0,2.1133842,0.8152924,2.22015,1.9262543   c0.1224174,1.2746048-0.8778114,2.3485184-2.1272659,2.3485184h-5.6476898c-0.4930153,0-0.8927345,0.3997192-0.8927345,0.8927383   v5.5547485c0,1.116127-0.8152962,2.1134338-1.9262581,2.2201004c-1.2746048,0.1224136-2.3485146-0.8777084-2.3485146-2.1272125   v-5.6476364c0-0.4930191-0.3997154-0.8927383-0.8927345-0.8927383h-5.6476402   c-1.1841202,0-2.1373863-0.9575424-2.1373863-2.1373901c0-1.1798401,0.9532661-2.1373825,2.1373863-2.1373825h5.6476402   c0.4930191,0,0.8927345-0.3997192,0.8927345-0.8927383v-2.8716965c0-0.4311829-0.307457-0.8063202-0.7328491-0.8770752   c-8.5953636-1.4304199-15.0804749-9.1774063-14.5054245-18.295639C33.1679268,40.258152,40.119133,33.2475662,48.73563,32.6359863   c10.1702766-0.7219925,18.6754723,7.3468513,18.6754723,17.3661652   C67.4111023,58.6282005,61.1086273,65.8056107,52.866539,67.1754532z"/></g><text x="0" y="115" fill="#000000" font-size="5px" font-weight="bold" font-family="'Helvetica Neue', Helvetica, Arial-Unicode, Arial, Sans-serif">Created by HeadsOfBirds</text><text x="0" y="120" fill="#000000" font-size="5px" font-weight="bold" font-family="'Helvetica Neue', Helvetica, Arial-Unicode, Arial, Sans-serif">from the Noun Project</text></svg>