<svg xmlns="http://www.w3.org/2000/svg" xmlns:xlink="http://www.w3.org/1999/xlink" version="1.1" x="0px" y="0px" viewBox="0 0 128 160" style="enable-background:new 0 0 128 128;" xml:space="preserve"><style type="text/css">
	.st0{fill:#313C42;}
</style><path class="st0" d="M124,47.8c-1.1-9.1-5.3-18.1-12.9-23.3c-8.2-5.6-20.1-5.8-28.1,0.1c-13.3,9.7-15.1,0.5-15.2-1.4  C67.2,16,67,8.2,67.4,1H52.5c1.1,6.8,2.1,13.7,3.2,20.5c0.5,3.2,1,6.3,2.1,9.3c1.8,4.7,5.1,8.7,8,12.8c6.1,9,10.3,21.2,4.6,30.5  c-5.3,8.7-16.8,10.9-27,11.5c-10.2,0.6-21.3,0.7-29.2,7.2C5.2,100.4,4,115.3,3.4,127h15.4c0-5.8,0-12.1,1.2-16.8  c0.5-2,4.7-15.4,37,3.6c16.2,9.5,39.7,5.1,52.1-9.1c7.1-8.2,11.2-19,13.5-29.6C124.6,66.2,125.2,56.9,124,47.8z M68.4,106.5  c-2.6,0-4.7-2.1-4.7-4.7c0-2.6,2.1-4.7,4.7-4.7c2.6,0,4.7,2.1,4.7,4.7C73.1,104.4,71,106.5,68.4,106.5z M80.3,83.1  c0-2.6,2.1-4.7,4.7-4.7s4.7,2.1,4.7,4.7s-2.1,4.7-4.7,4.7S80.3,85.7,80.3,83.1z M91.6,106.5c-2.6,0-4.7-2.1-4.7-4.7  c0-2.6,2.1-4.7,4.7-4.7c2.6,0,4.7,2.1,4.7,4.7C96.3,104.4,94.2,106.5,91.6,106.5z"/><text x="0" y="143" fill="#000000" font-size="5px" font-weight="bold" font-family="'Helvetica Neue', Helvetica, Arial-Unicode, Arial, Sans-serif">Created by Vectors Market</text><text x="0" y="148" fill="#000000" font-size="5px" font-weight="bold" font-family="'Helvetica Neue', Helvetica, Arial-Unicode, Arial, Sans-serif">from the Noun Project</text></svg>