<svg xmlns="http://www.w3.org/2000/svg" data-name="Layer 1" viewBox="0 0 100 125" x="0px" y="0px"><title>Bigdark_v2</title><path d="M79.32,37.14L71.88,29.7A9.77,9.77,0,0,1,69,22.79V22.49H31v0.29a9.78,9.78,0,0,1-2.87,6.91l-7.47,7.43a13.06,13.06,0,0,0-3.82,9.23V86.64a6.54,6.54,0,0,0,6.52,6.52H76.64a6.54,6.54,0,0,0,6.52-6.52V46.36A13.09,13.09,0,0,0,79.32,37.14ZM69.66,44.6A5.38,5.38,0,1,1,64.28,50,5.39,5.39,0,0,1,69.66,44.6Zm-1,17.09a5.4,5.4,0,1,1-5.41-5.38A5.42,5.42,0,0,1,68.69,61.69ZM63.27,33.81a5.4,5.4,0,1,1-5.38,5.38A5.39,5.39,0,0,1,63.27,33.81ZM56.88,44.6A5.38,5.38,0,1,1,51.5,50,5.41,5.41,0,0,1,56.88,44.6Zm-1,17.09a5.38,5.38,0,1,1-5.38-5.38A5.41,5.41,0,0,1,55.87,61.69ZM49.48,50A5.4,5.4,0,1,1,44.1,44.6,5.39,5.39,0,0,1,49.48,50ZM43.09,61.69a5.4,5.4,0,1,1-5.38-5.38A5.41,5.41,0,0,1,43.09,61.69ZM37.71,33.81a5.4,5.4,0,1,1-5.41,5.38A5.39,5.39,0,0,1,37.71,33.81ZM31.32,44.6A5.38,5.38,0,1,1,25.9,50,5.39,5.39,0,0,1,31.32,44.6ZM24.89,56.31a5.4,5.4,0,1,1-5.38,5.38A5.39,5.39,0,0,1,24.89,56.31Zm0,33.1A5.38,5.38,0,1,1,30.3,84,5.39,5.39,0,0,1,24.89,89.41Zm0.52-16.92a5.4,5.4,0,1,1,5.38,5.38A5.39,5.39,0,0,1,25.41,72.48ZM37.71,89.41A5.38,5.38,0,1,1,43.09,84,5.39,5.39,0,0,1,37.71,89.41ZM38.2,72.48a5.4,5.4,0,1,1,5.41,5.38A5.39,5.39,0,0,1,38.2,72.48ZM50.49,89.41A5.38,5.38,0,1,1,55.87,84,5.39,5.39,0,0,1,50.49,89.41ZM51,72.48a5.38,5.38,0,1,1,5.38,5.38A5.39,5.39,0,0,1,51,72.48ZM63.27,89.41A5.38,5.38,0,1,1,68.69,84,5.39,5.39,0,0,1,63.27,89.41Zm0.52-16.92a5.4,5.4,0,1,1,5.38,5.38A5.39,5.39,0,0,1,63.79,72.48ZM76.09,89.41A5.38,5.38,0,1,1,81.47,84,5.39,5.39,0,0,1,76.09,89.41Zm0-22.3a5.4,5.4,0,1,1,5.38-5.41A5.42,5.42,0,0,1,76.09,67.1ZM70.32,6.84H29.65A1.64,1.64,0,0,0,28,8.47v9.95A1.66,1.66,0,0,0,29.65,20h40.7a1.63,1.63,0,0,0,1.6-1.63V8.47A1.62,1.62,0,0,0,70.32,6.84Z"/><text x="0" y="115" fill="#FFF" font-size="5px" font-weight="bold" font-family="'Helvetica Neue', Helvetica, Arial-Unicode, Arial, Sans-serif">Created by Hare Krishna</text><text x="0" y="120" fill="#FFF" font-size="5px" font-weight="bold" font-family="'Helvetica Neue', Helvetica, Arial-Unicode, Arial, Sans-serif">from the Noun Project</text></svg>