<svg xmlns="http://www.w3.org/2000/svg" xmlns:xlink="http://www.w3.org/1999/xlink" version="1.1" x="0px" y="0px" viewBox="0 0 100 125" enable-background="new 0 0 100 100" xml:space="preserve"><path d="M1042.067,37.214c-17.417,0-31.589,14.17-31.589,31.588v1.914l-9.011,16.826c-0.249,0.465-0.233,1.026,0.035,1.479  c0.271,0.453,0.76,0.729,1.287,0.729h7.688v11.432c0,5.133,4.178,9.309,9.311,9.309h13.2v6.564c0,0.828,0.671,1.5,1.5,1.5  s1.5-0.672,1.5-1.5v-8.064c0-0.828-0.671-1.5-1.5-1.5h-14.7c-3.479,0-6.312-2.83-6.312-6.309V88.251c0-0.829-0.671-1.5-1.5-1.5  h-6.683L1013.3,71.8c0.116-0.218,0.178-0.461,0.178-0.708v-2.29c0-4.331,0.976-8.44,2.706-12.125l53.979,17.414  c-1.044,5.603-3.739,10.751-7.856,14.871c-0.393,0.272-0.642,0.729-0.642,1.229v26.781c0,0.827,0.671,1.5,1.5,1.5s1.5-0.673,1.5-1.5  V90.842c5.803-5.926,8.99-13.729,8.99-22.041C1073.657,51.385,1059.486,37.214,1042.067,37.214z M1042.067,40.214  c3.534,0,6.917,0.649,10.044,1.826l-14.404,9.038l-4.363-9.498C1036.096,40.696,1039.025,40.214,1042.067,40.214z M1017.625,53.989  c3.028-4.979,7.539-8.958,12.909-11.336l4.608,10.035l-7.319,4.593L1017.625,53.989z M1031.551,58.482l23.846-14.96  c2.605,1.38,4.978,3.15,7.028,5.234l-20.72,13.002L1031.551,58.482z M1045.433,62.961l9.054-5.682  c0.008,0.02,0.012,0.039,0.02,0.057l4.611,10.039L1045.433,62.961z M1062.936,68.607c-0.021-0.111-0.055-0.225-0.104-0.33  l-5.602-12.193c-0.064-0.141-0.152-0.261-0.252-0.369l7.061-4.432c0.139-0.086,0.251-0.195,0.35-0.313  c3.918,4.895,6.271,11.093,6.271,17.832c0,0.763-0.038,1.517-0.099,2.265L1062.936,68.607z M1018.752,72.514  c0,1.938,1.57,3.508,3.508,3.508c1.938,0,3.508-1.568,3.508-3.508c0-1.938-1.568-3.508-3.508-3.508  C1020.322,69.006,1018.752,70.576,1018.752,72.514z"/><path d="M1042.067,166.068c-17.417,0-31.589,14.172-31.589,31.59v1.912l-9.011,16.828c-0.249,0.465-0.233,1.023,0.036,1.479  c0.271,0.453,0.759,0.729,1.286,0.729h7.688v11.434c0,5.133,4.178,9.311,9.311,9.311h13.2v6.563c0,0.396,0.159,0.779,0.438,1.063  c0.281,0.279,0.662,0.438,1.062,0.438c0.001,0,0.003,0,0.005,0l28.678-0.082c0.826-0.002,1.495-0.676,1.495-1.5V219.7  c5.803-5.927,8.99-13.729,8.99-22.041C1073.657,180.24,1059.486,166.068,1042.067,166.068z M1042.067,170.068  c2.911,0,5.716,0.459,8.353,1.299l-12.497,7.84l-3.68-8.01C1036.743,170.46,1039.372,170.068,1042.067,170.068z M1022.26,204.875  c-1.938,0-3.508-1.57-3.508-3.508c0-1.936,1.57-3.506,3.508-3.506c1.938,0,3.508,1.57,3.508,3.506  C1025.768,203.305,1024.197,204.875,1022.26,204.875z M1029.968,184.197l-9.892-3.191c2.758-3.65,6.346-6.508,10.417-8.391  l4.013,8.736L1029.968,184.197z M1034.938,185.801l19.993-12.543c2.298,1.217,4.402,2.748,6.261,4.537l-17.342,10.881  L1034.938,185.801z M1048.818,190.279l5.443-3.416l2.789,6.074L1048.818,190.279z M1062.221,194.604l-4.536-9.873l-0.079,0.035  l6.299-3.951c3.479,4.502,5.604,10.104,5.746,16.188L1062.221,194.604z"/><g><g><path fill="#000000" d="M1061.668,376.289v-26.86c0-0.5,0.25-0.949,0.641-1.229c5.392-5.393,8.352-12.529,8.352-20.16    c0-15.76-12.83-28.59-28.59-28.59c-15.762,0-28.592,12.83-28.592,28.59v2.289c0,0.25-0.061,0.49-0.18,0.711l-8,14.949h6.68    c0.83,0,1.5,0.67,1.5,1.5v12.931c0,3.479,2.83,6.312,6.312,6.312h14.7c0.828,0,1.5,0.67,1.5,1.5v8.061c0,0.83-0.672,1.5-1.5,1.5    h28.68C1062.338,377.789,1061.668,377.119,1061.668,376.289z"/></g><path fill="#000000" d="M1054.509,316.578l4.61,10.031l-13.69-4.41l9.062-5.682   C1054.488,316.539,1054.498,316.559,1054.509,316.578z"/><path fill="#000000" d="M1030.539,301.889l4.6,10.04l-7.318,4.592l-10.189-3.29   C1020.648,308.248,1025.158,304.268,1030.539,301.889z"/><path fill="#000000" d="M1052.108,301.279l-14.399,9.039l-4.371-9.5c2.761-0.879,5.691-1.369,8.73-1.369   C1045.599,299.449,1048.988,300.1,1052.108,301.279z"/><path fill="#000000" d="M1062.429,307.988l-20.72,13.01l-10.16-3.279l23.85-14.96   C1057.998,304.139,1060.369,305.908,1062.429,307.988z"/><path fill="#000000" d="M1070.658,328.039c0,0.76-0.039,1.52-0.102,2.27l-7.619-2.459c-0.029-0.109-0.061-0.229-0.109-0.33   l-5.6-12.199c-0.063-0.142-0.15-0.262-0.25-0.369l7.061-4.432c0.14-0.078,0.25-0.189,0.35-0.311   C1068.309,315.1,1070.658,321.299,1070.658,328.039z"/><path fill="#000000" d="M1022.259,328.248c1.94,0,3.51,1.57,3.51,3.5c0,1.941-1.567,3.511-3.51,3.511   c-1.94,0-3.511-1.567-3.511-3.511C1018.748,329.818,1020.318,328.248,1022.259,328.248z"/><g><path fill="#000000" d="M1035.988,368.229v-4.701c0-0.829-0.67-1.5-1.5-1.5h-14.7c-3.479,0-6.31-2.829-6.31-6.312v4.702    c0,3.479,2.828,6.311,6.31,6.311h14.7C1035.318,366.729,1035.988,367.398,1035.988,368.229z"/></g><path fill="#000000" d="M1061.668,376.289v-26.86c0-0.5,0.25-0.949,0.641-1.229c4.604-4.604,7.428-10.483,8.154-16.854   c-1.879-0.297-3.695-0.938-5.504-1.545c-0.133-0.045-0.245-0.105-0.348-0.176c-0.381,7.029-3.289,13.56-8.305,18.574   c-0.391,0.277-0.641,0.729-0.641,1.229v26.86c0,0.83,0.67,1.5,1.5,1.5h6C1062.338,377.789,1061.668,377.119,1061.668,376.289z"/><g><polygon fill="#000000" points="1024.704,315.514 1027.818,316.52 1035.139,311.929 1034.086,309.631   "/><path fill="#000000" d="M1048.696,300.234l-0.024,0.015c-0.025-0.006-0.05-0.013-0.074-0.019    c-0.129-0.031-0.256-0.063-0.385-0.092c-0.285-0.063-0.571-0.123-0.859-0.178c-0.17-0.033-0.341-0.063-0.512-0.093    c-0.26-0.044-0.518-0.088-0.779-0.126c-0.213-0.029-0.427-0.056-0.641-0.082c-0.229-0.027-0.457-0.059-0.687-0.078    c-0.271-0.025-0.546-0.045-0.819-0.063c-0.18-0.012-0.359-0.027-0.542-0.035c-0.46-0.022-0.924-0.035-1.39-0.035    c-0.684,0-1.354,0.033-2.024,0.08c-0.153,0.012-0.307,0.021-0.46,0.037c-0.145,0.012-0.287,0.035-0.432,0.051    c2.648,0.286,5.188,0.943,7.568,1.908l-10.066,6.318l1.139,2.475l14.399-9.039    C1051.004,300.861,1049.863,300.514,1048.696,300.234z"/><path fill="#000000" d="M1054.488,316.52l-9.062,5.682l5.362,1.727l5.508-3.452l-1.79-3.896    C1054.498,316.559,1054.488,316.539,1054.488,316.52z"/><path fill="#000000" d="M1070.574,328.012c-0.002-0.752-0.039-1.496-0.1-2.23c-0.01-0.129-0.018-0.258-0.027-0.389    c-0.066-0.713-0.16-1.418-0.277-2.113c-0.021-0.131-0.047-0.264-0.07-0.395c-0.131-0.713-0.28-1.42-0.465-2.111    c-0.014-0.056-0.03-0.105-0.045-0.158c-0.19-0.709-0.408-1.407-0.651-2.096c-0.016-0.04-0.026-0.084-0.043-0.127    c-0.252-0.697-0.532-1.385-0.839-2.057c-0.029-0.07-0.063-0.139-0.094-0.209c-0.313-0.679-0.647-1.346-1.014-1.994    c-0.012-0.021-0.023-0.04-0.034-0.061c-0.035-0.063-0.077-0.12-0.113-0.185l0.063-0.038c-0.736-1.275-1.56-2.499-2.477-3.643    c-0.015,0.018-0.035,0.027-0.051,0.045c-0.012-0.016-0.021-0.031-0.033-0.045c-0.1,0.119-0.21,0.229-0.35,0.311l-3.75,2.354    c0.008,0.014,0.015,0.027,0.021,0.039l-3.25,2.039c0.102,0.107,0.189,0.229,0.25,0.369l1.631,3.551l3.377-2.117    c1.498,3.467,2.34,7.279,2.34,11.287c0,0.121-0.01,0.241-0.01,0.362l5.908,1.905c0.029-0.368,0.057-0.74,0.072-1.114    c0.016-0.386,0.027-0.77,0.027-1.153C1070.574,328.029,1070.574,328.021,1070.574,328.012z"/><path fill="#000000" d="M1058.473,310.42l3.867-2.428c-0.021-0.023-0.045-0.048-0.066-0.07c-0.468-0.469-0.949-0.921-1.446-1.354    c-0.06-0.054-0.117-0.104-0.179-0.153c-1.068-0.922-2.203-1.771-3.399-2.527c-0.017-0.01-0.031-0.021-0.047-0.029    c-0.61-0.387-1.235-0.748-1.874-1.09c-0.004-0.002-0.01-0.004-0.014-0.006l-2.959,1.855    C1054.67,306.238,1056.729,308.199,1058.473,310.42z"/></g><path fill="#000000" d="M1035.139,311.929l-4.6-10.04c-5.381,2.379-9.891,6.359-12.91,11.34l10.189,3.291L1035.139,311.929z    M1037.709,310.318l14.399-9.039c-3.12-1.182-6.512-1.83-10.04-1.83c-3.039,0-5.972,0.49-8.73,1.369L1037.709,310.318z    M1059.119,326.609l-4.61-10.031c-0.011-0.021-0.021-0.039-0.021-0.061l-9.062,5.682L1059.119,326.609z M1062.429,307.988   c-2.06-2.08-4.431-3.852-7.03-5.229l-23.85,14.96l10.16,3.279L1062.429,307.988z M1057.229,315.318l5.602,12.199   c0.051,0.102,0.08,0.221,0.109,0.33l7.619,2.459c0.063-0.75,0.102-1.51,0.102-2.27c0-6.74-2.352-12.939-6.271-17.83   c-0.1,0.119-0.21,0.23-0.35,0.311l-7.063,4.432C1057.078,315.059,1057.168,315.179,1057.229,315.318z M1010.479,348.988h-7.688   c-0.521,0-1.01-0.279-1.28-0.729c-0.27-0.45-0.29-1.011-0.04-1.479l9.012-16.82v-1.92c0-17.42,14.17-31.59,31.59-31.59   s31.59,14.17,31.59,31.59c0,8.32-3.189,16.119-8.99,22.039v26.211c0,0.83-0.67,1.5-1.5,1.5s-1.5-0.67-1.5-1.5v-26.86   c0-0.5,0.25-0.948,0.641-1.229c4.12-4.121,6.813-9.271,7.859-14.871l-53.979-17.409c-1.739,3.681-2.711,7.79-2.711,12.12v2.289   c0,0.25-0.062,0.49-0.181,0.711l-8,14.949h6.681c0.83,0,1.5,0.67,1.5,1.5v12.931c0,3.479,2.83,6.312,6.312,6.312h14.699   c0.829,0,1.5,0.67,1.5,1.5v8.061c0,0.83-0.671,1.5-1.5,1.5c-0.83,0-1.5-0.67-1.5-1.5v-6.561h-13.199   c-5.131,0-9.312-4.182-9.312-9.312v-11.433H1010.479L1010.479,348.988z"/></g><path d="M54.593,9.33c-17.418,0-31.588,14.17-31.588,31.588v1.914l-9.01,16.826c-0.25,0.465-0.236,1.026,0.035,1.479  c0.271,0.453,0.76,0.729,1.287,0.729h7.688v11.431c0,5.133,4.176,9.309,9.309,9.309h13.201v6.564c0,0.398,0.158,0.78,0.44,1.061  c0.281,0.283,0.662,0.439,1.06,0.439h0.004h28.678c0.826-0.002,1.496-0.755,1.496-1.581v-26.13c5.803-5.927,8.99-13.729,8.99-22.041  C86.183,23.5,72.011,9.33,54.593,9.33z M34.784,48.136c-1.937,0-3.507-1.571-3.507-3.507c0-1.938,1.57-3.508,3.507-3.508  c1.938,0,3.508,1.57,3.508,3.508C38.292,46.564,36.722,48.136,34.784,48.136z M66.496,48.314c-0.446,0-0.908-0.025-1.379-0.066  c-0.647,1.862-0.507,4.099,0.308,5.729c0,0-1.958,1.458-4.291,0.916c0,0-3.853-2.736-3.374-8.619  c-2.808-1.261-4.788-2.813-6.462-4.131c-1.637-1.29-2.93-2.309-4.49-2.703c-1.084-0.273-2.31-0.476-3.494-0.67  c-3.557-0.586-7.234-1.191-9.008-3.916c-1.068-1.641-1.25-3.738-0.559-6.411c2.146-8.282,12.432-13.231,21.135-13.231  c1.104,0,2.18,0.082,3.194,0.242c13.569,2.15,20.977,12.58,20.058,21.011C77.831,39.244,76.093,48.314,66.496,48.314z"/><text x="0" y="115" fill="#000000" font-size="5px" font-weight="bold" font-family="'Helvetica Neue', Helvetica, Arial-Unicode, Arial, Sans-serif">Created by Sergey Demushkin</text><text x="0" y="120" fill="#000000" font-size="5px" font-weight="bold" font-family="'Helvetica Neue', Helvetica, Arial-Unicode, Arial, Sans-serif">from the Noun Project</text></svg>