<svg xmlns="http://www.w3.org/2000/svg" xmlns:xlink="http://www.w3.org/1999/xlink" version="1.1" x="0px" y="0px" viewBox="0 0 128 160" style="enable-background:new 0 0 128 128;" xml:space="preserve"><style type="text/css">
	.st0{fill:#313C42;}
</style><g><path class="st0" d="M64.7,10.1h-7.8V6.8c0-3.2-2.6-5.8-5.8-5.8h-5c-3.2,0-5.8,2.6-5.8,5.8v3.3h-7.5l-4.1,19.6h40.2L64.7,10.1z"/><path class="st0" d="M117.1,86.7c-3.4-3.1-8-4.2-12.5-3.5c-1.6,0.3-6.6,0.4-6.6,0.4c-2.1,0-4.1-0.2-5.8-0.4   c-4.4-0.7-9.1,0.4-12.5,3.5c-11.8,10.7-1.3,29.7,5.1,36.9c5.5,6.2,12.3,2.2,13.4,1.4c0.1-0.1,0.2-0.1,0.3,0   c1.1,0.7,7.9,4.8,13.4-1.4C118.5,116.4,128.9,97.4,117.1,86.7z M112.9,104.1c-1.6,4.3-3.9,8-5.1,9.8c-0.5,0.7-1.3,1.1-2.1,1.1   c-0.5,0-1-0.1-1.4-0.5c-1.2-0.8-1.5-2.4-0.7-3.6c1.1-1.6,3.1-4.8,4.6-8.7c0.8-2.2,1.3-4.3,1.4-6.1c0.1-1.4,1.3-2.5,2.7-2.4   c1.4,0.1,2.5,1.3,2.4,2.7C114.5,98.9,113.9,101.4,112.9,104.1z"/><path class="st0" d="M95.8,78.4c0.5,0,1.1,0.1,1.6,0.1c0.2,0,0.3,0,0.5,0c0.8,0,1.6-0.1,2.4-0.1c-1.3-7.2-5.8-12-6-12.3l-3.5,2.7   C90.9,68.9,94.6,72.8,95.8,78.4z"/><path class="st0" d="M17,110.1c-1.4,0-2.6-1.1-2.6-2.6c0-1.4,1.1-2.6,2.6-2.6h52.9c-0.8-4.5-0.8-9,0.6-13.2H17   c-1.4,0-2.6-1.1-2.6-2.6c0-1.4,1.1-2.6,2.6-2.6h56.1c0.9-1.3,2-2.5,3.3-3.7c3.6-3.3,8.3-5.1,13.3-5.1c0.2,0,0.4,0,0.7,0   c-1.1-3.1-3-5.3-3.3-5.6l-0.1-0.2l-3.3-4.3l8.2-6.3v-2.4V26.6c0-3.7-3-6.7-6.7-6.7H72l3.1,14.9H22.3l3.1-14.9H12.2   c-3.7,0-6.7,3-6.7,6.7v93.7c0,3.7,3,6.7,6.7,6.7h68.8c-3.8-4.3-7.6-10.4-9.8-16.9H17z M17,50h55.7c1.4,0,2.6,1.1,2.6,2.6   c0,1.4-1.1,2.6-2.6,2.6H17c-1.4,0-2.6-1.1-2.6-2.6C14.4,51.1,15.6,50,17,50z M17,68.3h55.7c1.4,0,2.6,1.1,2.6,2.6   c0,1.4-1.1,2.6-2.6,2.6H17c-1.4,0-2.6-1.1-2.6-2.6C14.4,69.4,15.6,68.3,17,68.3z"/></g><text x="0" y="143" fill="#000000" font-size="5px" font-weight="bold" font-family="'Helvetica Neue', Helvetica, Arial-Unicode, Arial, Sans-serif">Created by Vectors Market</text><text x="0" y="148" fill="#000000" font-size="5px" font-weight="bold" font-family="'Helvetica Neue', Helvetica, Arial-Unicode, Arial, Sans-serif">from the Noun Project</text></svg>