<svg xmlns="http://www.w3.org/2000/svg" xmlns:xlink="http://www.w3.org/1999/xlink" version="1.1" x="0px" y="0px" viewBox="0 0 100 125" enable-background="new 0 0 100 100" xml:space="preserve"><path d="M69.25,30.54h-4.375v-4.777h1.05c1.646,0,2.976-1.33,2.976-2.975v-9.975c0-1.645-1.33-2.975-2.976-2.975h-31.85  c-1.645,0-2.975,1.33-2.975,2.975v9.975c0,1.645,1.33,2.975,2.975,2.975h1.05v4.777H30.75c-1.645,0-2.975,1.33-2.975,2.975v53.672  c0,1.646,1.33,2.975,2.975,2.975h38.5c1.646,0,2.975-1.329,2.975-2.975V33.515C72.225,31.888,70.896,30.54,69.25,30.54z   M32.85,22.788v-9.975c0-0.683,0.542-1.225,1.225-1.225h31.85c0.683,0,1.226,0.542,1.226,1.225v9.975  c0,0.683-0.543,1.225-1.226,1.225h-31.85C33.393,24.013,32.85,23.47,32.85,22.788z M36.875,25.763h26.25v4.777h-26.25V25.763z   M30.75,32.29h38.5c0.683,0,1.225,0.542,1.225,1.225v8.295h-40.95v-8.295C29.525,32.85,30.067,32.29,30.75,32.29z M70.475,43.56  v31.115h-40.95V43.56H70.475z M69.25,88.412h-38.5c-0.683,0-1.225-0.542-1.225-1.225V76.425h40.95v10.763  C70.475,87.87,69.933,88.412,69.25,88.412z"/><polygon points="51.33,61.2 43.263,69.268 44.505,70.51 55.548,59.45 46.623,59.45 55.354,50.735 54.112,49.492 42.405,61.2 "/><text x="0" y="115" fill="#FFF" font-size="5px" font-weight="bold" font-family="'Helvetica Neue', Helvetica, Arial-Unicode, Arial, Sans-serif">Created by Anton Gajdosik</text><text x="0" y="120" fill="#FFF" font-size="5px" font-weight="bold" font-family="'Helvetica Neue', Helvetica, Arial-Unicode, Arial, Sans-serif">from the Noun Project</text></svg>