<svg xmlns:dc="http://purl.org/dc/elements/1.1/" xmlns:cc="http://creativecommons.org/ns#" xmlns:rdf="http://www.w3.org/1999/02/22-rdf-syntax-ns#" xmlns:svg="http://www.w3.org/2000/svg" xmlns="http://www.w3.org/2000/svg" xmlns:sodipodi="http://sodipodi.sourceforge.net/DTD/sodipodi-0.dtd" xmlns:inkscape="http://www.inkscape.org/namespaces/inkscape" version="1.1" x="0px" y="0px" viewBox="0 0 100 125"><path style="" d="m 50.00391,4.9986671 c -0.254216,0 -0.506192,0.01385 -0.753906,0.03906 -0.742414,0.07577 -1.453794,0.261001 -2.115234,0.541016 -0.2207,0.0934 -0.437293,0.196891 -0.646485,0.310547 -0.417771,0.227177 -0.811441,0.494338 -1.175781,0.794922 -0.18205,0.15014 -0.356587,0.309952 -0.523438,0.476562 -1.33787,1.335946 -2.167968,3.1808319 -2.167968,5.2187499 0,0.255654 0.01549,0.506989 0.04101,0.75586 0.02357,0.229932 0.05922,0.456563 0.103516,0.679687 0.0163,0.08246 0.03761,0.162689 0.05664,0.244141 0.03395,0.144706 0.06896,0.288422 0.111328,0.429687 0.02722,0.09114 0.05922,0.179902 0.08984,0.269532 0.04539,0.132301 0.09192,0.263804 0.144531,0.392578 0.03628,0.08919 0.0756,0.176258 0.115234,0.263672 0.05123,0.11255 0.103495,0.224552 0.160156,0.333984 0.05642,0.10941 0.116084,0.216117 0.177735,0.322266 0.04707,0.08072 0.09647,0.15955 0.146484,0.238281 0.07344,0.116073 0.148906,0.230213 0.228516,0.341797 0.04528,0.0632 0.09342,0.123854 0.140625,0.185547 0.09476,0.124369 0.190679,0.247228 0.292969,0.365234 0.0294,0.03377 0.05984,0.06638 0.08984,0.09961 0.122481,0.136249 0.248691,0.267719 0.38086,0.394531 0.0047,0.0045 0.009,0.0092 0.01367,0.01367 1.173312,1.119924 2.710989,1.859411 4.416016,2.015625 3.54e-4,-0.0078 0.0016,-0.01559 0.002,-0.02344 l 0,-0.002 c 0.0013,-0.03777 8.53e-4,-0.07551 0.002,-0.113281 0.02946,-0.715716 0.05044,-1.43344 0.03906,-2.154297 l 0,-0.002 0,-0.002 c -0.0082,-0.281681 -0.0086,-0.569983 -0.0098,-0.855469 -1e-4,-0.122929 0.0042,-0.246281 0.0039,-0.36914 0.0057,-0.322083 -0.01099,-0.641715 -0.03711,-0.960938 -5e-4,-0.0084 -0.0015,-0.01699 -0.002,-0.02539 -0.01842,-0.314154 -0.04453,-0.629161 -0.0957,-0.943359 l 0,-0.002 -0.002,-0.002 c -0.06998,-0.363301 -0.157748,-0.713137 -0.205078,-1.048828 -5e-4,-0.0032 -0.0015,-0.0067 -0.002,-0.0098 l -0.246094,0.324218 0,0.002 -0.529297,0.695313 c -0.0053,0.0074 -0.0092,0.01554 -0.01367,0.02344 -0.0029,0.0041 -0.0072,0.0075 -0.0098,0.01172 l -0.0039,0.01172 c -0.0039,0.0082 -0.0067,0.01494 -0.0098,0.02344 -0.0022,0.0048 -0.0039,0.01072 -0.0059,0.01562 l -0.002,0.0098 c -0.0016,0.0055 -0.0047,0.01198 -0.0059,0.01758 l -0.002,0.0078 c -3.15e-4,0.0025 2.48e-4,0.005 0,0.0078 l -0.002,0.0098 0,0.0098 c -1.74e-4,0.0056 -1.74e-4,0.01003 0,0.01563 l 0,0.01172 c 6e-4,0.0056 0.0011,0.01002 0.002,0.01563 0.001,0.0084 0.0041,0.01709 0.0059,0.02539 l 0.002,0.01172 c 1.76e-4,0.0013 -1.97e-4,0.0027 0,0.0039 l 0.0039,0.01172 0.0039,0.0078 c 0.0012,0.0032 7.53e-4,0.0069 0.002,0.0098 9e-4,0.0028 0.0028,0.0052 0.0039,0.0078 l 0.0039,0.0078 c 0.0038,0.0079 0.0091,0.01594 0.01367,0.02344 0.0026,0.005 0.0049,0.0089 0.0078,0.01367 0.06936,0.09885 0.125252,0.198887 0.164062,0.302734 l 0,0.002 c 0.03905,0.103755 0.06055,0.209574 0.06055,0.322265 0,0.140316 -0.03383,0.27183 -0.08203,0.396485 -0.0049,0.01281 -0.0024,0.02843 -0.0078,0.04102 -0.01,0.02317 -0.02959,0.04014 -0.04101,0.0625 -0.04381,0.08602 -0.09865,0.162455 -0.16211,0.234375 -0.02643,0.03001 -0.04871,0.06079 -0.07813,0.08789 -0.09564,0.0883 -0.201117,0.165207 -0.322265,0.216797 -0.135098,0.05752 -0.28299,0.08984 -0.4375,0.08984 -0.618049,-3e-6 -1.130859,-0.511355 -1.13086,-1.128907 0,-0.15439 0.03216,-0.30067 0.08984,-0.435547 l 0,-0.002 c 0.0028,-0.0066 0.0088,-0.01108 0.01172,-0.01758 0.05113,-0.113114 0.123321,-0.212484 0.207031,-0.302734 0.02843,-0.03075 0.05824,-0.05647 0.08984,-0.08399 0.07069,-0.0616 0.14834,-0.111438 0.232422,-0.154296 0.03495,-0.01782 0.06665,-0.03662 0.103515,-0.05078 0.124865,-0.04826 0.256056,-0.08203 0.396485,-0.08203 0.141998,0 0.280265,0.02836 0.410156,0.08008 0.0082,0.0032 0.01689,0.0074 0.02539,0.0098 0.0095,0.0029 0.0194,0.0042 0.0293,0.0059 0.04355,0.0069 0.08915,0.0046 0.13086,-0.0098 0.01666,-0.0054 0.03158,-0.01298 0.04687,-0.02148 0.03095,-0.01811 0.05865,-0.04351 0.08008,-0.07227 l 0.640625,-0.849609 0.283203,-0.371094 c -0.02244,-0.01255 -0.0437,-0.0191 -0.06641,-0.0332 -0.171456,-0.106417 -0.345258,-0.257135 -0.503907,-0.443359 -0.132902,-0.156002 -0.253091,-0.341218 -0.359375,-0.542969 -0.209199,0.127108 -0.421349,0.256812 -0.662109,0.400391 -0.694129,0.413958 -1.402339,0.829835 -1.443359,0.853515 -0.08115,0.04685 -0.166947,0.07467 -0.253907,0.08594 -0.08816,0.01118 -0.177458,0.0052 -0.261718,-0.01758 -0.08319,-0.02224 -0.162492,-0.06053 -0.232422,-0.113282 -0.07028,-0.0533 -0.130595,-0.121485 -0.177735,-0.203124 -0.141362,-0.24484 -0.113554,-0.539057 0.04687,-0.75 0.05335,-0.06983 0.119912,-0.130825 0.201172,-0.177735 0.0011,-5.7e-4 0.01279,-0.0051 0.03125,-0.01563 l 0.621094,-0.357422 -0.716797,0.0059 c -0.03478,3e-4 -0.114783,8.53e-4 -0.189453,0.002 -0.07368,0.0012 -0.153631,0.0019 -0.144531,0.002 -0.09484,10e-6 -0.185778,-0.01807 -0.267578,-0.05273 -0.08089,-0.03405 -0.151731,-0.08562 -0.212891,-0.146485 -0.122799,-0.122795 -0.199219,-0.291956 -0.199219,-0.480469 0,-0.188513 0.07643,-0.357675 0.199219,-0.480468 0.122704,-0.122119 0.290588,-0.199219 0.478516,-0.199219 -0.0072,0 0.34115,0.003 0.453125,0.0039 l 0.002,0 0.722656,0.0059 -0.628906,-0.3574207 -0.002,0 c -0.04909,-0.02783 -0.141713,-0.08134 -0.226563,-0.128907 l -0.002,0 c -0.08453,-0.04738 -0.170363,-0.0955 -0.164062,-0.0918 l -0.002,0 c -0.08111,-0.04703 -0.14784,-0.109658 -0.201172,-0.179688 -0.05344,-0.07051 -0.09261,-0.148382 -0.115234,-0.232422 -0.04524,-0.168087 -0.02581,-0.354467 0.06836,-0.517578 0.04708,-0.08155 0.109217,-0.149845 0.179687,-0.203125 0.07012,-0.05272 0.148962,-0.09103 0.232422,-0.113281 0.0834,-0.02228 0.172656,-0.02831 0.259765,-0.01758 0.08775,0.01107 0.17421,0.0388 0.25586,0.08594 l 0.002,0 c -0.005,-0.0029 0.0785,0.04809 0.162109,0.09766 l 0.002,0 c 0.08392,0.04977 0.175909,0.106136 0.224609,0.134766 l 0.002,0 0.621094,0.365234 0.002,0.002 0.002,0 -0.367188,-0.625 c -0.0294,-0.04965 -0.08476,-0.142212 -0.134765,-0.226562 -0.05001,-0.08435 -0.101556,-0.170862 -0.09766,-0.164062 -0.141431,-0.244945 -0.114908,-0.538586 0.04492,-0.75 0.05315,-0.06999 0.120062,-0.132858 0.201172,-0.179688 0.163111,-0.09417 0.347539,-0.113599 0.515625,-0.06836 l 0.002,0 c 0.08342,0.02268 0.162392,0.06214 0.232422,0.115234 0.07051,0.05345 0.132568,0.121515 0.179688,0.203125 -0.0047,-0.0082 0.044,0.08072 0.0918,0.166016 0.04781,0.0853 0.100916,0.179105 0.128906,0.228515 l 0.357422,0.63086 0,-0.0039 0.002,0.0039 -0.0059,-0.72461 c -9e-4,-0.111975 -0.0039,-0.460325 -0.0039,-0.453125 -6e-6,-0.188509 0.07642,-0.357675 0.199219,-0.480468 0.122706,-0.122119 0.290588,-0.199219 0.478516,-0.199219 0.09426,0 0.184455,0.01863 0.265625,0.05273 l 0.002,0 c 0.08079,0.03424 0.151871,0.08547 0.212891,0.146485 0.122787,0.122792 0.199218,0.291956 0.199218,0.480468 0,0.04701 -0.006,0.868136 -0.01758,1.675782 -0.0046,0.316131 -0.01148,0.605992 -0.01758,0.873046 0.133653,0.09828 0.267568,0.214341 0.392578,0.3593747 0.158472,0.184208 0.301827,0.403262 0.419922,0.650391 0.118095,-0.247129 0.261509,-0.466183 0.419922,-0.650391 0.12501,-0.1450327 0.258925,-0.2611047 0.392578,-0.3593747 -0.0061,-0.267055 -0.01298,-0.556914 -0.01758,-0.873046 -0.01158,-0.807647 -0.01758,-1.628772 -0.01758,-1.675782 0,-0.188513 0.07643,-0.357675 0.199218,-0.480468 0.122707,-0.122119 0.290589,-0.199219 0.478516,-0.199219 0.09426,0 0.184225,0.01846 0.265625,0.05273 l 0.002,0 c 0.08079,0.03424 0.151871,0.08546 0.212891,0.146485 0.122799,0.122793 0.199225,0.291959 0.199219,0.480468 0,-0.0072 -0.003,0.34115 -0.0039,0.453125 l -0.0059,0.72461 0.002,-0.0039 0,0.0039 0.357422,-0.63086 c 0.02802,-0.04942 0.0811,-0.143215 0.128906,-0.228515 0.0478,-0.0853 0.0965,-0.174216 0.0918,-0.166016 0.04712,-0.08161 0.109178,-0.149675 0.179688,-0.203125 0.211417,-0.159404 0.503979,-0.187817 0.748046,-0.04687 l 0.002,0 c 0.08097,0.04698 0.1482,0.109597 0.201172,0.179688 0.159829,0.211414 0.186353,0.505054 0.04492,0.75 0.0039,-0.0068 -0.04765,0.07971 -0.09766,0.164062 -0.05,0.08435 -0.105956,0.177232 -0.134765,0.226562 l -0.367188,0.625 0.0039,-0.002 0.621094,-0.365234 c 0.04901,-0.02881 0.142123,-0.08493 0.226562,-0.134766 0.08435,-0.05002 0.170763,-0.101556 0.164063,-0.09766 0.163303,-0.09428 0.349524,-0.113169 0.517578,-0.06836 l 0.002,0 c 0.0834,0.02247 0.160479,0.06037 0.230469,0.113281 0.07047,0.05328 0.132607,0.121575 0.179687,0.203125 0.09417,0.16311 0.11323,0.349811 0.06836,0.517578 -0.02262,0.08404 -0.06178,0.161912 -0.115234,0.232422 -0.05345,0.07051 -0.121515,0.132577 -0.203126,0.179688 0.0081,-0.0047 -0.08071,0.04399 -0.166015,0.0918 -0.0853,0.04781 -0.179106,0.100897 -0.228516,0.128907 l -0.628906,0.3574207 0.722656,-0.0059 c 0.111975,-9e-4 0.460325,-0.0039 0.453125,-0.0039 0.09426,0 0.184235,0.01847 0.265625,0.05273 l 0.002,0 c 0.08079,0.03424 0.151871,0.08546 0.212891,0.146485 0.122789,0.122792 0.199219,0.291955 0.199219,0.480468 0,0.188513 -0.07642,0.357674 -0.199219,0.480469 -0.12236,0.122359 -0.290804,0.198692 -0.478516,0.199219 0.01174,0 -0.07181,-6.53e-4 -0.146484,-0.002 l -0.002,0 c -0.0739,-0.0011 -0.15216,-0.0016 -0.1875,-0.002 l -0.002,0 -0.714844,-0.0059 0.619141,0.357422 0.002,0 c 0.01689,0.0094 0.0283,0.01506 0.0293,0.01563 l 0.002,0 c 0.08111,0.04706 0.147982,0.107804 0.201172,0.177735 0.160434,0.210941 0.188242,0.505161 0.04687,0.75 -0.04714,0.08165 -0.107455,0.149825 -0.177735,0.203124 -0.140035,0.106212 -0.3177,0.15247 -0.492187,0.13086 -0.08756,-0.01111 -0.17415,-0.03876 -0.25586,-0.08594 l -0.002,0 c -0.04098,-0.02366 -0.747944,-0.439969 -1.441406,-0.853515 l -0.002,0 c -0.24024,-0.143268 -0.451447,-0.27346 -0.660156,-0.400391 -0.106284,0.201751 -0.226473,0.386967 -0.359375,0.542969 -0.158649,0.186224 -0.332451,0.336942 -0.503907,0.443359 -0.02272,0.0141 -0.04397,0.02065 -0.06641,0.0332 l 0.283203,0.371094 0.640625,0.849609 c 0.02143,0.02877 0.04913,0.05416 0.08008,0.07227 0.01527,0.0085 0.03022,0.01609 0.04687,0.02148 0.04171,0.0144 0.08731,0.01677 0.13086,0.0098 0.0013,-2.09e-4 0.0026,2.27e-4 0.0039,0 0.0086,-0.0016 0.01709,-0.0034 0.02539,-0.0059 0.0085,-0.0024 0.01719,-0.0066 0.02539,-0.0098 0.12989,-0.05172 0.26816,-0.08008 0.410156,-0.08008 0.140437,0 0.27162,0.03376 0.396485,0.08203 0.03686,0.01416 0.06856,0.03296 0.103515,0.05078 0.0841,0.04286 0.161732,0.0927 0.232422,0.154296 0.0316,0.02753 0.06141,0.05324 0.08984,0.08399 0.08371,0.09025 0.155901,0.18962 0.207031,0.302734 0.0029,0.0065 0.0089,0.01098 0.01172,0.01758 l 0,0.002 c 0.05768,0.134877 0.08984,0.281156 0.08984,0.435547 0,0.154387 -0.03221,0.30282 -0.08984,0.4375 -0.05765,0.13468 -0.141531,0.256997 -0.24414,0.359375 -0.102737,0.102518 -0.224381,0.184598 -0.359376,0.242188 -0.134937,0.05741 -0.282986,0.08984 -0.4375,0.08984 -0.155124,0 -0.301966,-0.03189 -0.4375,-0.08984 -0.121147,-0.05159 -0.226625,-0.128497 -0.322265,-0.216797 -0.02941,-0.0271 -0.05169,-0.05788 -0.07813,-0.08789 -0.06346,-0.07192 -0.11831,-0.148355 -0.16211,-0.234375 -0.01144,-0.02236 -0.03101,-0.03933 -0.04102,-0.0625 -0.0054,-0.01258 -0.0029,-0.02821 -0.0078,-0.04102 -0.0482,-0.124655 -0.08203,-0.256169 -0.08203,-0.396484 0,-0.112692 0.0215,-0.21851 0.06055,-0.322265 l 0,-0.002 c 0.03881,-0.103847 0.0947,-0.203884 0.164062,-0.302734 0.0029,-0.0048 0.0052,-0.0088 0.0078,-0.01367 0.0046,-0.0075 0.0099,-0.01554 0.01367,-0.02344 l 0.0039,-0.0078 0.0039,-0.0078 c 0.0014,-0.003 9.54e-4,-0.0066 0.002,-0.0098 l 0.0039,-0.0078 c 0.0012,-0.0042 0.003,-0.0077 0.0039,-0.01172 1.97e-4,-0.0012 -1.76e-4,-0.0026 0,-0.0039 l 0.002,-0.01172 c 0.0018,-0.0083 0.0049,-0.01699 0.0059,-0.02539 8.99e-4,-0.0055 0.0015,-0.01003 0.002,-0.01563 l 0,-0.01172 c 1.74e-4,-0.0056 1.74e-4,-0.01003 0,-0.01563 l 0,-0.0098 c -4e-4,-0.0032 -0.0016,-0.0064 -0.002,-0.0098 -2.48e-4,-0.0027 3.15e-4,-0.0053 0,-0.0078 l -0.002,-0.0078 c -0.0012,-0.0056 -0.0043,-0.01208 -0.0059,-0.01758 l -0.002,-0.0098 c -0.002,-0.0049 -0.0037,-0.01083 -0.0059,-0.01562 -0.0031,-0.0085 -0.0059,-0.01524 -0.0098,-0.02344 l -0.0039,-0.01172 c -0.0026,-0.0043 -0.0069,-0.0076 -0.0098,-0.01172 -0.0045,-0.0079 -0.0085,-0.01604 -0.01367,-0.02344 l -0.529297,-0.695313 0,-0.002 -0.246094,-0.324218 c -4.98e-4,0.0033 -0.0015,0.0065 -0.002,0.0098 -0.04733,0.335691 -0.135098,0.685527 -0.205078,1.048828 l -0.002,0.002 0,0.002 c -0.05117,0.314198 -0.07728,0.629205 -0.0957,0.943359 -2.7e-4,0.0033 2.68e-4,0.0066 0,0.0098 -3e-4,0.0052 -0.0017,0.01043 -0.002,0.01563 -0.02585,0.319223 -0.04281,0.638922 -0.03711,0.960937 -3e-4,0.122859 0.004,0.246212 0.0039,0.369141 -0.0012,0.285486 -0.0016,0.573787 -0.0098,0.855468 l 0,0.0019 0,0.002 c -0.01138,0.720857 0.0096,1.438581 0.03906,2.154297 0.0013,0.03777 8.53e-4,0.07551 0.002,0.113282 l 0,0.002 c 3.83e-4,0.0085 0.0016,0.0169 0.002,0.02539 1.700926,-0.153355 3.234327,-0.886532 4.40625,-1.998047 0.0094,-0.0089 0.01995,-0.01643 0.0293,-0.02539 0.0027,-0.0025 0.0052,-0.0053 0.0078,-0.0078 0.124876,-0.120043 0.243169,-0.246496 0.359375,-0.375 0.0378,-0.04166 0.07643,-0.08248 0.113282,-0.125 0.100414,-0.116238 0.195946,-0.236977 0.289062,-0.359375 0.04377,-0.05735 0.0868,-0.115177 0.128906,-0.173828 0.08853,-0.123698 0.172998,-0.249675 0.253906,-0.378907 0.03889,-0.06192 0.07621,-0.124359 0.113282,-0.1875 0.06956,-0.118815 0.136238,-0.238397 0.199218,-0.361328 0.04788,-0.09317 0.09275,-0.187779 0.136719,-0.283203 0.05065,-0.110253 0.09924,-0.220888 0.144531,-0.333984 0.04024,-0.100181 0.07542,-0.20238 0.111329,-0.304688 0.03944,-0.112701 0.07924,-0.224723 0.113281,-0.339844 0.0367,-0.12375 0.06739,-0.250564 0.09766,-0.376953 0.02268,-0.09501 0.04744,-0.188762 0.06641,-0.285156 0.02932,-0.148416 0.05007,-0.299676 0.07031,-0.451172 0.01164,-0.08745 0.02857,-0.173329 0.03711,-0.261719 0.02299,-0.236803 0.03516,-0.475852 0.03516,-0.71875 0,-1.019325 -0.205932,-1.989584 -0.580078,-2.8730468 -0.09345,-0.220768 -0.196843,-0.435367 -0.310546,-0.644531 -0.113929,-0.20964 -0.238075,-0.412611 -0.371094,-0.609375 -0.13271,-0.196342 -0.273354,-0.384123 -0.423828,-0.566406 -0.301231,-0.365007 -0.636981,-0.700761 -1.001954,-1.001953 -0.181868,-0.150115 -0.370562,-0.29141 -0.566406,-0.423828 l -0.002,0 C 53.930551,6.1277172 53.728441,6.0029472 53.519342,5.8892912 52.474122,5.3209161 51.275973,4.9986671 50.00391,4.9986671 Z m -2.714844,9.9941409 c -0.109329,0 -0.221864,0.04287 -0.302734,0.123047 l -0.002,0 c -0.08095,0.08094 -0.123047,0.194819 -0.123047,0.304687 0,0.109871 0.0421,0.225691 0.123047,0.306641 l 0.002,0 c 0.04024,0.03988 0.08686,0.07184 0.138672,0.0918 0.05276,0.0206 0.110546,0.0293 0.166016,0.0293 0.109202,-5.91e-4 0.215432,-0.05224 0.294922,-0.13086 0.08058,-0.07919 0.134765,-0.184931 0.134765,-0.296875 0,-0.111945 -0.05417,-0.217685 -0.134765,-0.296875 -0.0396,-0.03916 -0.08474,-0.07304 -0.134766,-0.0957 l -0.002,0 c -0.05058,-0.02269 -0.105216,-0.03516 -0.160157,-0.03516 z m 5.419922,0 c -0.109339,0 -0.215082,0.05242 -0.294922,0.130859 -0.08059,0.07919 -0.134765,0.18493 -0.134765,0.296875 0,0.111944 0.05417,0.217685 0.134765,0.296875 0.03973,0.03903 0.08467,0.07323 0.134766,0.0957 0.051,0.0231 0.10665,0.03516 0.16211,0.03516 0.109277,-4.6e-4 0.222264,-0.04061 0.302734,-0.121094 l 0.002,0 c 0.08095,-0.08095 0.123047,-0.196769 0.123047,-0.30664 0,-0.109868 -0.0421,-0.223748 -0.123047,-0.304688 l -0.002,0 c -0.04008,-0.04008 -0.08693,-0.07116 -0.138672,-0.0918 l -0.002,0 c -0.05232,-0.02064 -0.109133,-0.03125 -0.164063,-0.03125 z m -5.417968,0.355468 c 0.0056,4.3e-4 0.02905,0.0075 0.04687,0.02539 0.01844,0.01843 0.02344,0.04237 0.02344,0.04687 0,0.0044 -0.005,0.0304 -0.02344,0.04883 -0.01782,0.01784 -0.04118,0.02311 -0.04687,0.02344 -0.0089,0 -0.07031,-0.06023 -0.07031,-0.07227 0,-0.01198 0.06141,-0.07227 0.07031,-0.07227 z m 5.417968,0 c 0.0089,0 0.07031,0.06029 0.07031,0.07227 0,0.01204 -0.06141,0.07227 -0.07031,0.07227 -0.0057,-3.3e-4 -0.02905,-0.0056 -0.04687,-0.02344 -0.01844,-0.01843 -0.02344,-0.04443 -0.02344,-0.04883 0,-0.0045 0.005,-0.02844 0.02344,-0.04687 0.01827,-0.01709 0.04257,-0.02537 0.04687,-0.02539 z m 1.431641,6.5 -2.833984,0.0059 -0.56836,0.002 c 0.0066,0.404283 0.0104,0.808155 -0.0059,1.210938 -0.0083,0.279772 -0.01764,0.560972 -0.02734,0.841797 l -0.02539,0.724609 0.002,0 0,0.002 0.154297,0 1.208984,0.01563 c 0.02872,0.0048 0.04926,0.02115 0.07227,0.03516 0.03497,0.02046 0.0683,0.04359 0.08984,0.07813 0.01635,0.02833 0.02696,0.0604 0.03516,0.09375 0.0078,0.03091 0.01508,0.0612 0.01562,0.09375 2.31e-4,0.03867 -0.0075,0.07492 -0.01758,0.111329 -8e-4,0.0029 -0.0031,0.0049 -0.0039,0.0078 -0.0032,0.01096 -0.0082,0.02062 -0.01172,0.03125 -0.0057,0.01507 -0.0097,0.03119 -0.01758,0.04492 -0.02178,0.03488 -0.05446,0.05731 -0.08984,0.07813 -0.02301,0.01402 -0.04356,0.03036 -0.07227,0.03516 l -1.226563,0.01563 -0.158203,0 0,0.002 -0.0059,0.171875 c -0.0078,0.237616 -0.01564,0.475256 -0.02344,0.712891 l -0.0059,0.183594 0.002,0 0,0.002 0.160156,0 1.257813,0.01563 c 0.02872,0.0048 0.04926,0.02114 0.07227,0.03516 0.03497,0.02046 0.0683,0.04359 0.08984,0.07813 0.01635,0.02833 0.02696,0.0604 0.03516,0.09375 0.0078,0.03091 0.01508,0.0612 0.01562,0.09375 2.6e-4,0.04148 -0.0099,0.08046 -0.02148,0.11914 -0.0077,0.02597 -0.01453,0.05157 -0.02734,0.07422 -0.02174,0.03632 -0.0556,0.05879 -0.0918,0.08008 -0.02301,0.01402 -0.04356,0.03036 -0.07227,0.03516 l -1.273438,0.01563 -0.166015,0 -0.0078,0.173828 c -0.0078,0.237619 -0.01564,0.475253 -0.02344,0.712891 l -0.0059,0.183594 0.0039,0 0,0.0019 0.164062,0 1.339844,0.01563 c 0.05995,0.01773 0.09978,0.06413 0.130859,0.115234 0.01401,0.02445 0.0213,0.05176 0.0293,0.08008 4e-4,0.0014 0.0016,0.0025 0.002,0.0039 0.0096,0.03469 0.01924,0.06861 0.01953,0.105469 -9.8e-5,0.0021 -0.0019,0.0038 -0.002,0.0059 -3e-4,0.01632 -0.0049,0.03139 -0.0078,0.04687 -0.0036,0.01679 -0.0053,0.03403 -0.0098,0.05078 -0.008,0.03186 -0.01758,0.06265 -0.0332,0.08984 -0.0308,0.05005 -0.06802,0.09585 -0.126953,0.113281 l -1.351563,0.01563 -0.171874,0 0.01172,1.070313 0.0039,0 0,0.002 0.164063,0 1.310547,0.01563 c 0.02715,0.0045 0.04631,0.02037 0.06836,0.0332 0.03774,0.02139 0.07333,0.04651 0.0957,0.08398 0.01363,0.02437 0.0216,0.05199 0.0293,0.08008 0.0098,0.03513 0.01925,0.07002 0.01953,0.107421 -1.09e-4,0.03675 -0.01013,0.07081 -0.01953,0.105469 -0.0083,0.03123 -0.01766,0.06126 -0.0332,0.08789 -0.02087,0.03337 -0.05251,0.05399 -0.08594,0.07422 -0.02393,0.01524 -0.0459,0.03211 -0.07617,0.03711 l -1.300781,0.01563 -0.169922,0 0.01172,1.070313 0.0039,0 0,0.002 0.162109,0 1.326172,0.01563 c 0.05995,0.01773 0.09978,0.06413 0.130859,0.115234 0.01401,0.02445 0.0213,0.05176 0.0293,0.08008 4e-4,0.0014 0.0016,0.0025 0.002,0.0039 0.0097,0.03532 0.0194,0.0699 0.01953,0.107422 -1.7e-4,0.02053 -0.0072,0.03928 -0.01172,0.05859 -0.0033,0.01412 -0.004,0.02883 -0.0078,0.04297 -0.008,0.03186 -0.01758,0.06265 -0.0332,0.08984 -0.0308,0.05006 -0.06802,0.09585 -0.126953,0.113281 l -1.318359,0.01563 -0.167969,0 0.01172,1.070313 0.0039,0 0,0.002 0.160156,0 1.277344,0.01563 c 0.02715,0.0045 0.04631,0.02037 0.06836,0.0332 0.03774,0.02138 0.07333,0.04651 0.0957,0.08398 0.01363,0.02437 0.0216,0.052 0.0293,0.08008 0.01003,0.03576 0.01942,0.07131 0.01953,0.109375 -2.7e-4,0.03607 -0.01033,0.06948 -0.01953,0.103515 -0.0083,0.03123 -0.01766,0.06126 -0.0332,0.08789 -0.02087,0.03337 -0.05251,0.05399 -0.08594,0.07422 -0.02393,0.01524 -0.0459,0.03211 -0.07617,0.03711 l -1.265625,0.01563 -0.166016,0 0.002,0.181641 c 0.0033,0.237562 0.0084,0.475193 0.01172,0.712891 l 0,0.04492 0.002,0.130859 0,0.0019 0.162109,0 1.289063,0.01563 c 0.059,0.01745 0.09787,0.06335 0.128906,0.113281 0.0169,0.0291 0.02686,0.06129 0.03516,0.0957 0.0075,0.03044 0.01508,0.05981 0.01562,0.0918 2.51e-4,0.04161 -0.0099,0.08034 -0.02148,0.119141 -0.0076,0.02586 -0.01475,0.05162 -0.02734,0.07422 -0.03112,0.0522 -0.07003,0.09919 -0.130859,0.117188 l -1.304687,0.01563 -0.164063,0 0,0.002 -0.0059,0.171875 c -0.0072,0.237669 -0.01429,0.475278 -0.02149,0.712891 l -0.0078,0.183593 0.0059,0 0,0.002 0.160156,0 1.304688,0.01563 c 0.02715,0.0045 0.04631,0.02037 0.06836,0.0332 0.03774,0.02139 0.07333,0.04651 0.0957,0.08398 0.01363,0.02437 0.0216,0.052 0.0293,0.08008 0.0098,0.03513 0.01925,0.07002 0.01953,0.107422 -1.09e-4,0.03675 -0.01013,0.07081 -0.01953,0.105469 -0.0083,0.03123 -0.01766,0.06126 -0.0332,0.08789 -0.02087,0.03337 -0.05251,0.05399 -0.08594,0.07422 -0.02393,0.01524 -0.0459,0.03211 -0.07617,0.03711 l -1.314453,0.01563 -0.171875,0 -0.0059,0.173828 c -0.0078,0.237616 -0.01564,0.47525 -0.02344,0.71289 l -0.0059,0.183594 0.0039,0 0,0.002 0.167968,0 1.351563,0.01563 c 0.02715,0.0045 0.04631,0.02037 0.06836,0.0332 0.03774,0.02138 0.07333,0.04651 0.0957,0.08399 0.01363,0.02437 0.0216,0.052 0.0293,0.08008 0.01003,0.03577 0.01942,0.07132 0.01953,0.109375 -2.7e-4,0.03608 -0.01033,0.06948 -0.01953,0.103515 -0.0083,0.03123 -0.01766,0.06126 -0.0332,0.08789 -0.02087,0.03337 -0.05251,0.05399 -0.08594,0.07422 -0.02393,0.01524 -0.0459,0.03211 -0.07617,0.03711 -0.457026,0.0056 -0.914039,0.01198 -1.371094,0.01758 l -0.175781,0 -0.04297,2.285157 -0.0039,0.179687 0,0.02539 c 0.0025,0.03857 -0.0074,0.07127 -0.01758,0.103515 -0.04418,0.07807 -0.09989,0.149158 -0.169922,0.205078 -0.02332,0.01657 -0.0517,0.02835 -0.07813,0.04297 -0.05858,0.03666 -0.117944,0.0731 -0.183594,0.09375 -0.06565,-0.02065 -0.125014,-0.05709 -0.183594,-0.09375 -0.02643,-0.01462 -0.0548,-0.0264 -0.07813,-0.04297 -0.07003,-0.05592 -0.125742,-0.127008 -0.169922,-0.205078 -0.01018,-0.03224 -0.02008,-0.06496 -0.01758,-0.103515 l 0,-0.02539 -0.0039,-0.179687 -0.04297,-2.285157 -0.175781,0 c -0.457055,-0.0056 -0.914068,-0.01198 -1.371094,-0.01758 -0.03027,-0.005 -0.05224,-0.02187 -0.07617,-0.03711 -0.03343,-0.02023 -0.06507,-0.04085 -0.08594,-0.07422 -0.01554,-0.02663 -0.0249,-0.05666 -0.0332,-0.08789 -0.0092,-0.03403 -0.01926,-0.06743 -0.01953,-0.103515 1.09e-4,-0.03806 0.0095,-0.07362 0.01953,-0.109375 0.0077,-0.02808 0.01567,-0.05571 0.0293,-0.08008 0.02237,-0.03747 0.05796,-0.06261 0.0957,-0.08399 0.02205,-0.01283 0.04121,-0.0287 0.06836,-0.0332 l 1.351563,-0.01563 0.167968,0 0,-0.002 0.0039,0 -0.0059,-0.183594 c -0.0078,-0.23764 -0.01564,-0.475274 -0.02344,-0.71289 l -0.0059,-0.173828 -0.171875,0 -1.314453,-0.01563 c -0.03027,-0.005 -0.05224,-0.02187 -0.07617,-0.03711 -0.03343,-0.02023 -0.06507,-0.04085 -0.08594,-0.07422 -0.01554,-0.02663 -0.0249,-0.05666 -0.0332,-0.08789 -0.0094,-0.03466 -0.01942,-0.06872 -0.01953,-0.105469 2.8e-4,-0.0374 0.0097,-0.07229 0.01953,-0.107422 0.0077,-0.02808 0.01567,-0.05571 0.0293,-0.08008 0.02237,-0.03747 0.05796,-0.06259 0.0957,-0.08398 0.02205,-0.01283 0.04121,-0.0287 0.06836,-0.0332 l 1.304688,-0.01563 0.160156,0 0,-0.002 0.0059,0 -0.0078,-0.183593 c -0.0072,-0.237613 -0.01429,-0.475222 -0.02149,-0.712891 l -0.0059,-0.171875 0,-0.002 -0.164063,0 -1.304687,-0.01563 c -0.06083,-0.018 -0.09974,-0.06499 -0.130859,-0.117188 -0.01259,-0.0226 -0.01974,-0.04836 -0.02734,-0.07422 -0.01158,-0.0388 -0.02173,-0.07753 -0.02148,-0.119141 5.4e-4,-0.03199 0.0081,-0.06136 0.01562,-0.0918 0.0083,-0.03441 0.01826,-0.0666 0.03516,-0.0957 0.03104,-0.04993 0.06991,-0.09583 0.128906,-0.113281 l 1.289063,-0.01563 0.162109,0 0,-0.0019 0.002,-0.130859 0,-0.04492 c 0.0033,-0.237698 0.0084,-0.475329 0.01172,-0.712891 l 0.002,-0.181641 -0.166016,0 -1.265625,-0.01563 c -0.03027,-0.005 -0.05224,-0.02187 -0.07617,-0.03711 -0.03343,-0.02023 -0.06507,-0.04085 -0.08594,-0.07422 -0.01554,-0.02663 -0.0249,-0.05666 -0.0332,-0.08789 -0.0092,-0.03403 -0.01926,-0.06744 -0.01953,-0.103515 1.09e-4,-0.03807 0.0095,-0.07362 0.01953,-0.109375 0.0077,-0.02808 0.01567,-0.05571 0.0293,-0.08008 0.02237,-0.03747 0.05796,-0.0626 0.0957,-0.08398 0.02205,-0.01283 0.04121,-0.0287 0.06836,-0.0332 l 1.277344,-0.01563 0.160156,0 0,-0.002 0.0039,0 0.01172,-1.070313 -0.167969,0 -1.318359,-0.01563 c -0.05892,-0.01743 -0.09592,-0.06344 -0.126953,-0.113281 l -0.002,-0.002 c -0.01469,-0.02602 -0.02325,-0.05569 -0.03125,-0.08594 l 0,-0.002 c -4e-4,-0.0014 -0.0016,-0.0024 -0.002,-0.0039 -0.0033,-0.01288 -0.0033,-0.02624 -0.0059,-0.03906 -0.0045,-0.01931 -0.01156,-0.03806 -0.01172,-0.05859 1.29e-4,-0.03752 0.0098,-0.0721 0.01953,-0.107422 4e-4,-0.0014 0.0016,-0.0025 0.002,-0.0039 0.008,-0.02832 0.01529,-0.05563 0.0293,-0.08008 0.03108,-0.0511 0.07091,-0.0975 0.130859,-0.115234 l 1.326172,-0.01563 0.162109,0 0,-0.0019 0.0039,0 0.01172,-1.070313 -0.169922,0 -1.300781,-0.01563 c -0.03027,-0.005 -0.05224,-0.02187 -0.07617,-0.03711 -0.03343,-0.02023 -0.06507,-0.04085 -0.08594,-0.07422 -0.01554,-0.02663 -0.0249,-0.05666 -0.0332,-0.08789 -0.0094,-0.03466 -0.01942,-0.06872 -0.01953,-0.105469 2.8e-4,-0.0374 0.0097,-0.07229 0.01953,-0.107421 0.0077,-0.02809 0.01567,-0.05571 0.0293,-0.08008 0.02237,-0.03747 0.05796,-0.06259 0.0957,-0.08398 0.02205,-0.01283 0.04121,-0.0287 0.06836,-0.0332 l 1.310547,-0.01563 0.164063,0 0,-0.002 0.0039,0 0.01172,-1.070313 -0.171874,0 -1.351563,-0.01563 c -0.05892,-0.01743 -0.09592,-0.06344 -0.126953,-0.113281 l -0.002,-0.002 c -0.01469,-0.02602 -0.02325,-0.05569 -0.03125,-0.08594 l 0,-0.002 c -4e-4,-0.0014 -0.0016,-0.0024 -0.002,-0.0039 -0.0039,-0.01548 -0.0049,-0.03139 -0.0078,-0.04687 -0.0033,-0.01539 -0.0073,-0.03069 -0.0078,-0.04687 -10e-5,-0.0021 -0.0019,-0.0038 -0.002,-0.0059 2.89e-4,-0.03686 0.0099,-0.07078 0.01953,-0.105469 4e-4,-0.0014 0.0016,-0.0025 0.002,-0.0039 0.008,-0.02832 0.01529,-0.05563 0.0293,-0.08008 0.03108,-0.0511 0.07091,-0.0975 0.130859,-0.115234 l 1.339844,-0.01563 0.164062,0 0,-0.002 0.0039,0 -0.0059,-0.183594 c -0.0078,-0.237638 -0.01564,-0.475272 -0.02344,-0.712891 l -0.0078,-0.173828 -0.166015,0 -1.273438,-0.01563 c -0.02871,-0.0048 -0.04926,-0.02114 -0.07227,-0.03516 -0.0362,-0.02129 -0.07006,-0.04376 -0.0918,-0.08008 -0.01281,-0.02265 -0.01964,-0.04825 -0.02734,-0.07422 -0.01158,-0.03868 -0.02175,-0.07766 -0.02148,-0.11914 5.39e-4,-0.03255 0.0078,-0.06284 0.01562,-0.09375 0.0082,-0.03335 0.01881,-0.06542 0.03516,-0.09375 0.02154,-0.03454 0.05487,-0.05768 0.08984,-0.07813 0.02301,-0.01402 0.04355,-0.03036 0.07227,-0.03516 l 1.257813,-0.01563 0.160156,0 0,-0.002 0.002,0 -0.0059,-0.183594 c -0.0078,-0.237635 -0.01564,-0.475275 -0.02344,-0.712891 l -0.0059,-0.171875 0,-0.002 -0.158203,0 -1.226563,-0.01563 c -0.02871,-0.0048 -0.04926,-0.02114 -0.07227,-0.03516 l -0.002,0 c -0.03456,-0.02054 -0.06661,-0.04368 -0.08789,-0.07813 l -0.002,-0.002 c -0.0074,-0.01309 -0.01093,-0.0284 -0.01563,-0.04297 -0.0039,-0.01043 -0.0085,-0.0203 -0.01172,-0.03125 -8e-4,-0.0028 -0.0031,-0.0049 -0.0039,-0.0078 -0.01008,-0.03641 -0.01781,-0.07266 -0.01758,-0.111328 5.6e-4,-0.03255 0.0078,-0.06284 0.01562,-0.09375 0.0082,-0.03335 0.01881,-0.06542 0.03516,-0.09375 0.02154,-0.03454 0.05487,-0.05769 0.08984,-0.07813 0.02301,-0.01401 0.04355,-0.03036 0.07227,-0.03516 l 1.208984,-0.01563 0.154297,0 0,-0.002 0.002,0 -0.02539,-0.724609 c -0.0097,-0.280825 -0.01904,-0.562025 -0.02734,-0.841797 -0.01634,-0.402134 -0.01249,-0.805356 -0.0059,-1.208984 l -0.566407,0.0019 -7.849609,0.01563 c -0.40279,-0.0029 -0.803318,0.06042 -1.185547,0.1875 -0.13848,0.0192 -0.265627,0.04095 -0.404297,0.06445 -0.80858,0.13726 -1.637234,0.362533 -2.490234,0.714843 -0.87985,0.36303 -1.750338,0.862757 -2.554687,1.585938 l -0.03125,0 c -0.87797,0.79106 -1.544298,1.746891 -1.992188,2.806641 l 0,0.03125 c -0.53702,1.27595 -0.686834,2.512058 -0.683594,3.611328 0.0267,14.108139 0.123047,23.480468 0.123047,23.480468 0.100028,4.840014 7.331908,4.778515 7.349609,-0.0625 0,0 -0.09825,-9.369899 -0.125,-23.449218 -7.99e-4,-0.29044 0.04725,-0.4806 0.09375,-0.625 l 1.994141,4.517578 c 0.0135,1.970979 0.02605,3.877792 0.03125,5.945312 0.01,3.76877 0.0223,7.429168 0.0293,10.962891 -0.0149,22.506067 -0.154297,39.330078 -0.154297,39.330078 0.0177,4.841015 7.249581,4.902514 7.349609,0.0625 0,0 0.08885,-14.52578 0.123047,-33.56836 l 3.363282,0 c 0.0342,19.04262 0.154293,33.56836 0.154297,33.56836 -0.419563,5.32763 7.828852,5.257187 7.318359,-0.0625 0,0 -0.108087,-16.824012 -0.123047,-39.330078 0.007,-3.533721 0.0196,-7.194121 0.0293,-10.962891 0.005,-2.05669 0.02585,-3.953023 0.03125,-5.914062 l 1.994141,-4.486328 c 0.0306,0.14276 0.0633,0.30855 0.0625,0.5625 -0.0267,14.079319 -0.125,23.449218 -0.125,23.449218 -0.102492,4.959172 7.367747,5.022698 7.349609,0.0625 0,0 0.09635,-9.372329 0.123047,-23.480468 0.003,-1.09927 -0.146574,-2.335378 -0.683594,-3.611328 l 0,-0.03125 c -0.44788,-1.05975 -1.114216,-2.015581 -1.992188,-2.806641 -0.804349,-0.72318 -1.706087,-1.222908 -2.585937,-1.585938 -0.853,-0.35231 -1.681655,-0.577583 -2.490234,-0.714843 -0.1448,-0.0245 -0.2935,-0.04455 -0.4375,-0.06445 -0.0102,-10e-4 -0.02115,0.001 -0.03125,0 -0.343346,-0.103477 -0.699994,-0.156118 -1.058594,-0.15625 l -5.011719,-0.05859 c -0.02083,-1.82e-4 -0.04167,-1.71e-4 -0.0625,0 l -0.002,0 z" fill="#000000" fill-opacity="1" stroke="none"/><text x="0" y="115" fill="#000000" font-size="5px" font-weight="bold" font-family="'Helvetica Neue', Helvetica, Arial-Unicode, Arial, Sans-serif">Created by Jakob Vogel</text><text x="0" y="120" fill="#000000" font-size="5px" font-weight="bold" font-family="'Helvetica Neue', Helvetica, Arial-Unicode, Arial, Sans-serif">from the Noun Project</text></svg>