<svg xmlns="http://www.w3.org/2000/svg" xmlns:xlink="http://www.w3.org/1999/xlink" viewBox="0 0 24 30" version="1.1" x="0px" y="0px"><title>72 - Intestines (Solid)</title><desc>Created with Sketch.</desc><g stroke="none" stroke-width="1" fill="none" fill-rule="evenodd"><g fill="#000000"><path d="M19.9954,3.0798 C19.9994,3.9528 20.0014,4.5728 20.0014,4.5938 C20.0014,6.0808 19.1804,7.2928 18.0304,8.0668 C19.2064,8.9648 20.0014,10.3318 20.0014,11.7728 C20.0014,14.3828 18.4694,16.0038 16.0014,16.0038 L15.8004,16.0038 C15.9294,16.3238 16.0014,16.6618 16.0014,17.0038 L16.0014,23.3038 C20.6544,21.6518 24.0014,17.2168 24.0014,12.0038 C24.0014,8.4598 22.4474,5.2788 19.9954,3.0798"/><path d="M9.0012,19.9684 L8.5552,19.9524 L8.5542,19.9524 C6.0602,19.9524 4.0012,17.8934 4.0012,15.3634 C4.0012,13.8854 4.8322,12.6814 5.9922,11.9164 C4.8122,11.0014 4.0012,9.6144 4.0012,8.1834 C4.0012,6.6884 4.8322,5.5364 6.0022,4.8244 C5.5202,4.4524 5.1062,4.0294 4.8162,3.6104 C4.7932,3.5764 4.7722,3.5414 4.7532,3.5064 C4.7092,3.4324 4.5992,3.2564 4.4862,3.0764 C4.4292,2.9854 4.3722,2.8924 4.3172,2.7984 C1.6822,5.0014 0.0012,8.3094 0.0012,12.0044 C0.0012,17.5834 3.8342,22.2714 9.0012,23.6094 L9.0012,19.9684 Z"/><path d="M14.0012,17.004 C14.0012,16.565 13.4402,16.004 13.0012,16.004 L11.0012,16.004 C10.4482,16.004 10.0012,15.556 10.0012,15.004 C10.0012,14.452 10.4482,14.004 11.0012,14.004 L13.0012,14.004 L16.0012,14.004 C16.4962,14.004 18.0012,14.004 18.0012,11.773 C18.0012,10.401 16.4872,9.004 15.0012,9.004 L11.0012,9.004 C10.4482,9.004 10.0012,8.556 10.0012,8.004 C10.0012,7.452 10.4482,7.004 11.0012,7.004 L15.0012,7.004 C16.4202,7.004 18.0012,6.014 18.0012,4.594 C18.0012,4.374 17.9942,3.073 17.9832,1.617 C16.2202,0.597 14.1802,0.004 12.0012,0.004 C9.7962,0.004 7.7342,0.612 5.9572,1.654 C6.0182,1.753 6.0962,1.878 6.1832,2.016 C6.2732,2.163 6.3712,2.318 6.4522,2.478 L6.4612,2.472 C6.9512,3.18 8.1682,4.004 9.0012,4.004 L14.0012,4.004 C14.5542,4.004 15.0012,4.452 15.0012,5.004 C15.0012,5.556 14.5542,6.004 14.0012,6.004 L9.0012,6.004 C7.5592,6.004 6.0012,6.837 6.0012,8.184 C6.0012,9.554 7.5432,11.004 9.0012,11.004 L13.0012,11.004 C13.5542,11.004 14.0012,11.452 14.0012,12.004 C14.0012,12.556 13.5542,13.004 13.0012,13.004 L9.0012,13.004 C7.5822,13.004 6.0012,13.973 6.0012,15.363 C6.0012,16.791 7.1632,17.953 8.5912,17.953 L10.0372,18.004 C10.5752,18.024 11.0012,18.466 11.0012,19.004 L11.0012,23.953 C11.3322,23.981 11.6632,24.004 12.0012,24.004 C12.6842,24.004 13.3492,23.933 14.0012,23.823 L14.0012,17.004 Z"/></g></g><text x="0" y="39" fill="#000000" font-size="5px" font-weight="bold" font-family="'Helvetica Neue', Helvetica, Arial-Unicode, Arial, Sans-serif">Created by Ben Davis</text><text x="0" y="44" fill="#000000" font-size="5px" font-weight="bold" font-family="'Helvetica Neue', Helvetica, Arial-Unicode, Arial, Sans-serif">from the Noun Project</text></svg>