<svg xmlns="http://www.w3.org/2000/svg" xmlns:xlink="http://www.w3.org/1999/xlink" version="1.1" x="0px" y="0px" viewBox="0 0 100 125" enable-background="new 0 0 100 100" xml:space="preserve"><path d="M93,43H6.25c-1.351,0-1.382,1.265-1.35,1.487C7.84,64.604,27.014,79.774,49.5,79.774s41.66-15.17,44.6-35.287  c0.016-0.108,0.045-0.692-0.162-1.029C93.72,43.105,93.26,43,93,43z M49.5,77.774C28.302,77.774,10.204,63.74,7.017,45h84.965  C88.796,63.74,70.698,77.774,49.5,77.774z"/><path d="M33.504,70.164c-7.294-2.67-13.408-7.562-17.217-13.774c-0.288-0.47-0.903-0.618-1.375-0.33  c-0.471,0.288-0.619,0.904-0.33,1.375c4.043,6.596,10.519,11.784,18.234,14.608c0.113,0.041,0.229,0.061,0.344,0.061  c0.407,0,0.791-0.251,0.939-0.656C34.289,70.929,34.022,70.354,33.504,70.164z"/><path d="M14.945,53.953c-0.47-0.956-0.888-1.943-1.245-2.934c-0.187-0.52-0.759-0.794-1.279-0.602  c-0.52,0.187-0.789,0.76-0.602,1.279c0.381,1.06,0.829,2.115,1.331,3.137c0.174,0.354,0.529,0.56,0.898,0.56  c0.147,0,0.298-0.033,0.439-0.103C14.984,55.048,15.188,54.448,14.945,53.953z"/><path d="M73.983,90.846c-0.01-0.077-0.03-0.153-0.066-0.242c-1.547-4.778-5.334-8.725-10.159-10.569  c-0.178-0.068-0.433-0.08-0.618-0.03c-8.783,2.377-18.496,2.377-27.279,0c-0.185-0.05-0.439-0.038-0.618,0.03  c-5.685,2.173-8.993,6.931-10.194,10.659c-0.089,0.276-0.029,0.613,0.129,0.853C25.356,91.818,25.673,92,26,92c0,0,47,0,47,0  c0.361,0,0.713-0.228,0.878-0.547C73.972,91.271,74.01,91.052,73.983,90.846z M35.693,82.024c4.454,1.174,9.096,1.772,13.807,1.772  c4.711,0,9.353-0.599,13.807-1.772c4.246,1.717,6.944,5.024,8.244,7.976H27.456C28.771,87.041,31.473,83.731,35.693,82.024z"/><path d="M59.181,41.863C59.435,42.001,59.954,42,60,42c0,0,18.681,0.001,18.808,0.001c0.393,0,0.766-0.233,0.925-0.619  c1.896-4.607,3.51-11.225,4.116-13.855c0.038-0.165,0.158-0.292,0.314-0.333c3.029-0.781,5.413-3.067,6.376-6.113  c0.959-3.03,0.214-6.364-1.944-8.702c-2.039-2.208-4.91-3.266-7.883-2.897c-2.947,0.365-5.533,2.102-6.918,4.643  c-1.233,2.266-1.411,4.841-0.5,7.25c0.052,0.138,0.011,0.309-0.104,0.436c-2.278,2.521-10.046,11.323-14.366,18.687  C58.545,40.972,58.695,41.601,59.181,41.863z M74.675,23.149c0.62-0.688,0.809-1.638,0.49-2.482  c-0.702-1.857-0.565-3.841,0.385-5.587c1.077-1.977,3.1-3.328,5.408-3.614c2.325-0.292,4.57,0.539,6.168,2.27  c1.646,1.783,2.238,4.43,1.507,6.741c-0.754,2.385-2.612,4.172-4.97,4.78c-0.882,0.228-1.558,0.925-1.764,1.82  c-0.569,2.471-2.042,8.514-3.78,12.947C78.079,40.019,78.042,40,78,40H61.471C65.805,33.142,72.583,25.464,74.675,23.149z"/><path d="M54.642,56.846c-1.172,0.819-2.309,2.03-3.395,3.602c-0.902-1.5-1.961-2.9-3.189-3.94c-4.745-4.02-12.075-2.94-12.387-2.892  l-0.856,0.133l0.01,0.867c0.004,0.313,0.142,7.722,4.888,11.743c4.644,3.936,13.934,4.709,14.326,4.74l1.385,0.109l-0.335-1.348  c-0.023-0.091-0.172-0.676-0.442-1.552c1.844-0.341,4.391-1.009,6.345-2.302c4.652-3.077,6.196-9.262,6.26-9.523l0.247-1.017  l-1.027-0.2C66.166,55.208,58.952,53.84,54.642,56.846z M36.885,55.501c1.971-0.142,6.719-0.146,9.88,2.531  c2.502,2.12,4.296,6.122,5.333,8.988L41.5,57.806c-0.416-0.36-1.047-0.319-1.411,0.099c-0.362,0.417-0.318,1.049,0.099,1.411  l10.737,9.335c-3.005-0.54-7.366-1.654-9.919-3.818C37.853,62.162,37.075,57.47,36.885,55.501z M59.887,64.339  c-1.773,1.173-4.205,1.765-5.882,2.055c-0.094-0.26-0.192-0.526-0.297-0.802l7.659-5.193c0.457-0.311,0.576-0.933,0.267-1.39  c-0.311-0.457-0.933-0.575-1.39-0.267l-7.318,4.961c-0.186-0.419-0.381-0.841-0.592-1.267c1.113-1.781,2.299-3.145,3.453-3.951  c2.717-1.895,7.14-1.655,9.192-1.416C64.362,58.84,62.819,62.399,59.887,64.339z"/><text x="0" y="115" fill="#000000" font-size="5px" font-weight="bold" font-family="'Helvetica Neue', Helvetica, Arial-Unicode, Arial, Sans-serif">Created by  Laymik</text><text x="0" y="120" fill="#000000" font-size="5px" font-weight="bold" font-family="'Helvetica Neue', Helvetica, Arial-Unicode, Arial, Sans-serif">from the Noun Project</text></svg>