<svg xmlns="http://www.w3.org/2000/svg" xmlns:xlink="http://www.w3.org/1999/xlink" xml:space="preserve" version="1.1" style="shape-rendering:geometricPrecision;text-rendering:geometricPrecision;image-rendering:optimizeQuality;" viewBox="0 0 60000 75000" x="0px" y="0px" fill-rule="evenodd" clip-rule="evenodd"><defs><style type="text/css">
   
    .fil0 {fill:black;fill-rule:nonzero}
   
  </style></defs><g><path class="fil0" d="M17401 8809c-146,-11 -255,-138 -244,-284 11,-146 138,-255 284,-244 649,51 844,247 1010,414 74,75 137,138 358,130 146,-5 268,110 272,256 5,146 -110,268 -256,272 -449,16 -587,-122 -749,-285 -102,-103 -222,-223 -675,-258zm23701 205c-146,-11 -255,-138 -244,-284 11,-146 138,-255 284,-244 649,51 844,247 1010,414 74,75 137,138 358,130 146,-5 268,110 272,256 5,146 -110,268 -256,272 -449,16 -587,-122 -749,-285 -102,-103 -222,-223 -675,-258zm20 945c-146,-11 -255,-139 -243,-285 11,-146 139,-255 285,-243 636,52 828,247 992,415 73,74 134,137 347,130 146,-5 268,110 272,256 5,146 -110,268 -256,272 -444,15 -580,-124 -740,-287 -100,-102 -217,-222 -656,-257zm20 945c-146,-12 -254,-140 -242,-286 12,-146 140,-254 286,-242 623,53 812,249 974,416 71,73 131,135 336,129 146,-4 267,111 271,257 4,146 -111,267 -257,271 -438,13 -573,-126 -731,-290 -98,-101 -212,-219 -637,-255zm20 945c-146,-13 -254,-141 -241,-287 13,-146 141,-254 287,-241 610,54 796,250 956,417 69,73 128,134 325,129 146,-4 267,111 271,257 4,146 -111,267 -257,271 -432,12 -566,-128 -723,-292 -96,-100 -207,-217 -619,-254zm20 944c-145,-13 -252,-142 -239,-287 13,-145 142,-252 287,-239 598,55 781,250 938,417 68,72 126,134 316,129 146,-3 267,112 270,258 3,146 -112,267 -258,270 -426,11 -558,-130 -713,-294 -94,-100 -204,-217 -600,-254zm20 945c-145,-14 -252,-143 -238,-288 14,-145 143,-252 288,-238 585,56 765,251 920,419 66,71 122,132 304,128 146,-3 267,112 270,258 3,146 -112,267 -258,270 -421,10 -552,-132 -705,-297 -92,-99 -198,-215 -581,-251zm20 945c-145,-14 -251,-144 -237,-289 14,-145 144,-251 289,-237 572,57 749,252 902,420 64,71 120,131 294,128 146,-3 266,113 269,259 3,146 -113,266 -259,269 -415,9 -545,-134 -696,-300 -90,-99 -194,-213 -562,-250zm20 945c-145,-15 -251,-145 -236,-290 15,-145 145,-251 290,-236 558,58 733,253 884,421 63,70 116,130 284,127 146,-2 266,114 268,260 2,146 -114,266 -260,268 -408,7 -537,-136 -686,-303 -87,-97 -188,-210 -544,-248zm20 945c-145,-15 -250,-146 -235,-291 15,-145 146,-250 291,-235 547,60 718,254 866,422 61,69 114,129 274,127 146,-2 265,115 267,261 2,146 -115,265 -261,267 -403,6 -530,-138 -677,-305 -85,-97 -184,-209 -525,-246zm20 945c-145,-16 -250,-147 -234,-292 16,-145 147,-250 292,-234 533,61 702,255 848,424 59,69 111,128 263,126 146,-2 265,115 267,261 2,146 -115,265 -261,267 -398,5 -523,-140 -669,-308 -83,-96 -179,-207 -506,-244zm19 945c-145,-17 -249,-149 -232,-294 17,-145 149,-249 294,-232 519,62 685,256 828,425 58,68 108,127 253,126 146,-1 265,116 266,262 1,146 -116,265 -262,266 -392,3 -516,-142 -659,-310 -81,-95 -175,-205 -489,-242zm20 945c-145,-18 -249,-150 -231,-295 18,-145 150,-249 295,-231 507,63 670,257 811,426 56,67 105,126 242,125 146,-1 264,117 265,263 1,146 -117,264 -263,265 -386,2 -509,-144 -650,-313 -79,-94 -170,-203 -469,-240zm19 944c-145,-19 -247,-151 -228,-296 19,-145 151,-247 296,-228 493,64 653,258 791,427 55,67 102,124 233,124 146,0 264,118 264,264 0,146 -118,264 -264,264 -380,1 -501,-147 -641,-317 -77,-94 -165,-201 -452,-238zm20 945c-145,-19 -246,-152 -227,-297 19,-145 152,-246 297,-227 481,66 637,259 774,428 53,66 100,123 221,123 146,0 264,118 264,264 0,146 -118,264 -264,264 -375,-1 -495,-149 -633,-320 -75,-93 -161,-199 -432,-236zm19 945c-145,-21 -245,-155 -225,-299 21,-145 155,-245 299,-225 468,67 621,260 754,429 52,66 98,123 212,124 146,1 263,119 263,265 -1,146 -119,263 -265,263 -370,-2 -488,-151 -624,-322 -73,-92 -156,-197 -415,-234zm19 945c-145,-22 -244,-157 -223,-301 22,-145 157,-244 301,-223 454,69 604,261 736,431 51,65 95,122 201,123 146,1 263,120 262,266 -1,146 -120,263 -266,262 -364,-4 -481,-154 -615,-326 -71,-91 -152,-195 -396,-232zm19 944c-144,-23 -242,-158 -219,-302 23,-144 158,-242 302,-219 441,70 587,262 716,431 49,64 92,121 191,122 146,2 263,121 261,267 -2,146 -121,263 -267,261 -358,-5 -473,-156 -605,-329 -69,-91 -148,-193 -379,-230zm19 945c-144,-24 -241,-160 -217,-304 24,-144 160,-241 304,-217 427,71 570,263 697,432 48,64 90,120 183,122 146,3 262,123 259,269 -3,146 -123,262 -269,259 -351,-7 -465,-159 -595,-333 -67,-89 -143,-191 -361,-227zm19 945c-144,-25 -240,-162 -215,-306 25,-144 162,-240 306,-215 414,73 554,264 678,434 46,63 87,119 172,121 146,3 261,124 258,270 -3,146 -124,261 -270,258 -346,-9 -458,-162 -586,-336 -65,-88 -138,-188 -343,-225zm19 944c-143,-26 -238,-164 -212,-307 26,-143 164,-238 307,-212 401,75 537,265 659,434 45,63 85,118 163,121 146,4 261,125 257,271 -4,146 -125,261 -271,257 -340,-10 -451,-165 -577,-340 -63,-88 -134,-187 -325,-223zm18 945c-143,-28 -237,-167 -209,-311 28,-143 167,-237 311,-209 387,76 520,266 639,435 44,63 83,118 153,120 146,5 260,127 255,273 -5,146 -127,260 -273,255 -334,-12 -444,-168 -567,-344 -61,-87 -130,-185 -308,-220zm18 944c-143,-30 -235,-170 -205,-313 30,-143 170,-235 313,-205 373,78 502,267 618,435 43,62 81,117 144,120 146,6 259,129 254,274 -6,146 -129,259 -274,254 -328,-14 -436,-171 -558,-348 -59,-86 -126,-183 -291,-218zm18 944c-142,-31 -232,-172 -201,-315 31,-142 172,-232 315,-201 359,80 485,268 598,436 41,61 78,116 135,119 146,7 258,131 252,276 -7,146 -131,258 -276,252 -322,-16 -429,-174 -549,-353 -57,-85 -122,-181 -273,-214zm18 945c-142,-33 -231,-175 -198,-318 33,-142 175,-231 318,-198 345,82 468,269 579,437 40,61 76,116 125,119 146,8 257,133 249,278 -8,146 -133,257 -278,249 -317,-18 -422,-178 -539,-357 -55,-84 -117,-179 -256,-211zm17 944c-142,-35 -228,-179 -193,-321 35,-142 179,-228 321,-193 330,83 449,269 557,436 39,61 74,116 117,119 146,9 257,135 247,281 -9,146 -135,257 -281,247 -310,-20 -414,-181 -529,-361 -54,-84 -113,-177 -240,-209zm130 907c1,-146 119,-263 265,-263 146,1 263,119 263,265l-117 21538c-1,146 -119,263 -265,263 -146,-1 -263,-119 -263,-265l117 -21538zm114 -26807c365,-10 699,128 945,360 246,233 403,559 413,924 10,365 -128,699 -360,945 -233,246 -559,403 -924,413 -365,10 -699,-128 -945,-360 -246,-233 -403,-559 -413,-924 -10,-365 128,-699 360,-945 233,-246 559,-403 924,-413zm582 745c-148,-140 -349,-223 -568,-217 -219,6 -414,100 -554,248 -140,148 -223,349 -217,568 6,219 100,414 248,554 148,140 349,223 568,217 219,-6 414,-100 554,-248 140,-148 223,-349 217,-568 -6,-219 -100,-414 -248,-554zm-13144 2494c-146,-11 -255,-138 -244,-284 11,-146 138,-255 284,-244 649,51 844,247 1010,414 74,75 137,138 358,130 146,-5 268,110 272,256 5,146 -110,268 -256,272 -449,16 -587,-122 -749,-285 -102,-103 -222,-223 -675,-258zm20 945c-146,-11 -255,-139 -243,-285 11,-146 139,-255 285,-243 636,52 828,247 992,415 73,74 134,137 347,130 146,-5 268,110 272,256 5,146 -110,268 -256,272 -444,15 -580,-124 -740,-287 -100,-102 -217,-222 -656,-257zm20 945c-146,-12 -254,-140 -242,-286 12,-146 140,-254 286,-242 623,53 812,249 974,416 71,73 131,135 336,129 146,-4 267,111 271,257 4,146 -111,267 -257,271 -438,13 -573,-126 -731,-290 -98,-101 -212,-219 -637,-255zm20 945c-146,-13 -254,-141 -241,-287 13,-146 141,-254 287,-241 610,54 796,250 956,417 69,73 128,134 325,129 146,-4 267,111 271,257 4,146 -111,267 -257,271 -432,12 -566,-128 -723,-292 -96,-100 -207,-217 -619,-254zm20 944c-145,-13 -252,-142 -239,-287 13,-145 142,-252 287,-239 598,55 781,250 938,417 68,72 126,134 316,129 146,-3 267,112 270,258 3,146 -112,267 -258,270 -426,11 -558,-130 -713,-294 -94,-100 -204,-217 -600,-254zm20 945c-145,-14 -252,-143 -238,-288 14,-145 143,-252 288,-238 585,56 765,251 920,419 66,71 122,132 304,128 146,-3 267,112 270,258 3,146 -112,267 -258,270 -421,10 -552,-132 -705,-297 -92,-99 -198,-215 -581,-251zm20 945c-145,-14 -251,-144 -237,-289 14,-145 144,-251 289,-237 572,57 749,252 902,420 64,71 120,131 294,128 146,-3 266,113 269,259 3,146 -113,266 -259,269 -415,9 -545,-134 -696,-300 -90,-99 -194,-213 -562,-250zm20 945c-145,-15 -251,-145 -236,-290 15,-145 145,-251 290,-236 558,58 733,253 884,421 63,70 116,130 284,127 146,-2 266,114 268,260 2,146 -114,266 -260,268 -408,7 -537,-136 -686,-303 -87,-97 -188,-210 -544,-248zm20 945c-145,-15 -250,-146 -235,-291 15,-145 146,-250 291,-235 547,60 718,254 866,422 61,69 114,129 274,127 146,-2 265,115 267,261 2,146 -115,265 -261,267 -403,6 -530,-138 -677,-305 -85,-97 -184,-209 -525,-246zm20 945c-145,-16 -250,-147 -234,-292 16,-145 147,-250 292,-234 533,61 702,255 848,424 59,69 111,128 263,126 146,-2 265,115 267,261 2,146 -115,265 -261,267 -398,5 -523,-140 -669,-308 -83,-96 -179,-207 -506,-244zm19 945c-145,-17 -249,-149 -232,-294 17,-145 149,-249 294,-232 519,62 685,256 828,425 58,68 108,127 253,126 146,-1 265,116 266,262 1,146 -116,265 -262,266 -392,3 -516,-142 -659,-310 -81,-95 -175,-205 -489,-242zm20 945c-145,-18 -249,-150 -231,-295 18,-145 150,-249 295,-231 507,63 670,257 811,426 56,67 105,126 242,125 146,-1 264,117 265,263 1,146 -117,264 -263,265 -386,2 -509,-144 -650,-313 -79,-94 -170,-203 -469,-240zm19 944c-145,-19 -247,-151 -228,-296 19,-145 151,-247 296,-228 493,64 653,258 791,427 55,67 102,124 233,124 146,0 264,118 264,264 0,146 -118,264 -264,264 -380,1 -501,-147 -641,-317 -77,-94 -165,-201 -452,-238zm20 945c-145,-19 -246,-152 -227,-297 19,-145 152,-246 297,-227 481,66 637,259 774,428 53,66 100,123 221,123 146,0 264,118 264,264 0,146 -118,264 -264,264 -375,-1 -495,-149 -633,-320 -75,-93 -161,-199 -432,-236zm19 945c-145,-21 -245,-155 -225,-299 21,-145 155,-245 299,-225 468,67 621,260 754,429 52,66 98,123 212,124 146,1 263,119 263,265 -1,146 -119,263 -265,263 -370,-2 -488,-151 -624,-322 -73,-92 -156,-197 -415,-234zm19 945c-145,-22 -244,-157 -223,-301 22,-145 157,-244 301,-223 454,69 604,261 736,431 51,65 95,122 201,123 146,1 263,120 262,266 -1,146 -120,263 -266,262 -364,-4 -481,-154 -615,-326 -71,-91 -152,-195 -396,-232zm19 944c-144,-23 -242,-158 -219,-302 23,-144 158,-242 302,-219 441,70 587,262 716,431 49,64 92,121 191,122 146,2 263,121 261,267 -2,146 -121,263 -267,261 -358,-5 -473,-156 -605,-329 -69,-91 -148,-193 -379,-230zm19 945c-144,-24 -241,-160 -217,-304 24,-144 160,-241 304,-217 427,71 570,263 697,432 48,64 90,120 183,122 146,3 262,123 259,269 -3,146 -123,262 -269,259 -351,-7 -465,-159 -595,-333 -67,-89 -143,-191 -361,-227zm19 945c-144,-25 -240,-162 -215,-306 25,-144 162,-240 306,-215 414,73 554,264 678,434 46,63 87,119 172,121 146,3 261,124 258,270 -3,146 -124,261 -270,258 -346,-9 -458,-162 -586,-336 -65,-88 -138,-188 -343,-225zm19 944c-143,-26 -238,-164 -212,-307 26,-143 164,-238 307,-212 401,75 537,265 659,434 45,63 85,118 163,121 146,4 261,125 257,271 -4,146 -125,261 -271,257 -340,-10 -451,-165 -577,-340 -63,-88 -134,-187 -325,-223zm18 945c-143,-28 -237,-167 -209,-311 28,-143 167,-237 311,-209 387,76 520,266 639,435 44,63 83,118 153,120 146,5 260,127 255,273 -5,146 -127,260 -273,255 -334,-12 -444,-168 -567,-344 -61,-87 -130,-185 -308,-220zm18 944c-143,-30 -235,-170 -205,-313 30,-143 170,-235 313,-205 373,78 502,267 618,435 43,62 81,117 144,120 146,6 259,129 254,274 -6,146 -129,259 -274,254 -328,-14 -436,-171 -558,-348 -59,-86 -126,-183 -291,-218zm18 944c-142,-31 -232,-172 -201,-315 31,-142 172,-232 315,-201 359,80 485,268 598,436 41,61 78,116 135,119 146,7 258,131 252,276 -7,146 -131,258 -276,252 -322,-16 -429,-174 -549,-353 -57,-85 -122,-181 -273,-214zm18 945c-142,-33 -231,-175 -198,-318 33,-142 175,-231 318,-198 345,82 468,269 579,437 40,61 76,116 125,119 146,8 257,133 249,278 -8,146 -133,257 -278,249 -317,-18 -422,-178 -539,-357 -55,-84 -117,-179 -256,-211zm17 944c-142,-35 -228,-179 -193,-321 35,-142 179,-228 321,-193 330,83 449,269 557,436 39,61 74,116 117,119 146,9 257,135 247,281 -9,146 -135,257 -281,247 -310,-20 -414,-181 -529,-361 -54,-84 -113,-177 -240,-209zm130 907c1,-146 119,-263 265,-263 146,1 263,119 263,265l-117 21538c-1,146 -119,263 -265,263 -146,-1 -263,-119 -263,-265l117 -21538zm114 -26807c365,-10 699,128 945,360 246,233 403,559 413,924 10,365 -128,699 -360,945 -233,246 -559,403 -924,413 -365,10 -699,-128 -945,-360 -246,-233 -403,-559 -413,-924 -10,-365 128,-699 360,-945 233,-246 559,-403 924,-413zm582 745c-148,-140 -349,-223 -568,-217 -219,6 -414,100 -554,248 -140,148 -223,349 -217,568 6,219 100,414 248,554 148,140 349,223 568,217 219,-6 414,-100 554,-248 140,-148 223,-349 217,-568 -6,-219 -100,-414 -248,-554zm-13126 3203c-146,-11 -255,-139 -243,-285 11,-146 139,-255 285,-243 636,52 828,247 992,415 73,74 134,137 347,130 146,-5 268,110 272,256 5,146 -110,268 -256,272 -444,15 -580,-124 -740,-287 -100,-102 -217,-222 -656,-257zm20 945c-146,-12 -254,-140 -242,-286 12,-146 140,-254 286,-242 623,53 812,249 974,416 71,73 131,135 336,129 146,-4 267,111 271,257 4,146 -111,267 -257,271 -438,13 -573,-126 -731,-290 -98,-101 -212,-219 -637,-255zm20 945c-146,-13 -254,-141 -241,-287 13,-146 141,-254 287,-241 610,54 796,250 956,417 69,73 128,134 325,129 146,-4 267,111 271,257 4,146 -111,267 -257,271 -432,12 -566,-128 -723,-292 -96,-100 -207,-217 -619,-254zm20 944c-145,-13 -252,-142 -239,-287 13,-145 142,-252 287,-239 598,55 781,250 938,417 68,72 126,134 316,129 146,-3 267,112 270,258 3,146 -112,267 -258,270 -426,11 -558,-130 -713,-294 -94,-100 -204,-217 -600,-254zm20 945c-145,-14 -252,-143 -238,-288 14,-145 143,-252 288,-238 585,56 765,251 920,419 66,71 122,132 304,128 146,-3 267,112 270,258 3,146 -112,267 -258,270 -421,10 -552,-132 -705,-297 -92,-99 -198,-215 -581,-251zm20 945c-145,-14 -251,-144 -237,-289 14,-145 144,-251 289,-237 572,57 749,252 902,420 64,71 120,131 294,128 146,-3 266,113 269,259 3,146 -113,266 -259,269 -415,9 -545,-134 -696,-300 -90,-99 -194,-213 -562,-250zm20 945c-145,-15 -251,-145 -236,-290 15,-145 145,-251 290,-236 558,58 733,253 884,421 63,70 116,130 284,127 146,-2 266,114 268,260 2,146 -114,266 -260,268 -408,7 -537,-136 -686,-303 -87,-97 -188,-210 -544,-248zm20 945c-145,-15 -250,-146 -235,-291 15,-145 146,-250 291,-235 547,60 718,254 866,422 61,69 114,129 274,127 146,-2 265,115 267,261 2,146 -115,265 -261,267 -403,6 -530,-138 -677,-305 -85,-97 -184,-209 -525,-246zm20 945c-145,-16 -250,-147 -234,-292 16,-145 147,-250 292,-234 533,61 702,255 848,424 59,69 111,128 263,126 146,-2 265,115 267,261 2,146 -115,265 -261,267 -398,5 -523,-140 -669,-308 -83,-96 -179,-207 -506,-244zm19 945c-145,-17 -249,-149 -232,-294 17,-145 149,-249 294,-232 519,62 685,256 828,425 58,68 108,127 253,126 146,-1 265,116 266,262 1,146 -116,265 -262,266 -392,3 -516,-142 -659,-310 -81,-95 -175,-205 -489,-242zm20 945c-145,-18 -249,-150 -231,-295 18,-145 150,-249 295,-231 507,63 670,257 811,426 56,67 105,126 242,125 146,-1 264,117 265,263 1,146 -117,264 -263,265 -386,2 -509,-144 -650,-313 -79,-94 -170,-203 -469,-240zm19 944c-145,-19 -247,-151 -228,-296 19,-145 151,-247 296,-228 493,64 653,258 791,427 55,67 102,124 233,124 146,0 264,118 264,264 0,146 -118,264 -264,264 -380,1 -501,-147 -641,-317 -77,-94 -165,-201 -452,-239zm20 945c-145,-19 -246,-152 -227,-297 19,-145 152,-246 297,-227 481,66 637,259 774,428 53,66 100,123 221,123 146,0 264,118 264,264 0,146 -118,264 -264,264 -375,-1 -495,-149 -633,-320 -75,-93 -161,-199 -432,-236zm19 945c-145,-21 -245,-155 -225,-299 21,-145 155,-245 299,-225 468,67 621,260 754,429 52,66 98,123 212,124 146,1 263,119 263,265 -1,146 -119,263 -265,263 -370,-2 -488,-151 -623,-322 -73,-92 -156,-197 -415,-234zm19 945c-145,-22 -244,-157 -223,-301 22,-145 157,-244 301,-223 454,69 604,261 736,430 51,65 95,122 201,123 146,1 263,120 262,266 -1,146 -120,263 -266,262 -364,-4 -481,-154 -615,-326 -71,-91 -152,-195 -396,-232zm19 944c-144,-23 -242,-158 -219,-302 23,-144 158,-242 302,-219 441,70 587,262 716,431 49,64 92,121 191,122 146,2 263,121 261,267 -2,146 -121,263 -267,261 -358,-5 -474,-156 -605,-329 -69,-91 -148,-193 -379,-230zm19 945c-144,-24 -241,-160 -217,-304 24,-144 160,-241 304,-217 427,71 570,263 697,432 48,64 90,120 182,122 146,2 262,122 260,268 -2,146 -122,262 -268,260 -352,-7 -466,-159 -596,-333 -67,-89 -143,-191 -361,-227zm19 945c-144,-25 -240,-162 -215,-306 25,-144 162,-240 306,-215 414,73 554,264 678,434 46,63 87,119 172,121 146,3 261,124 258,270 -3,146 -124,261 -270,258 -346,-9 -458,-162 -586,-336 -65,-88 -138,-188 -343,-225zm19 944c-143,-26 -238,-164 -212,-307 26,-143 164,-238 307,-212 401,75 537,265 659,434 45,63 85,118 163,121 146,4 261,125 257,271 -4,146 -125,261 -271,257 -340,-10 -451,-165 -577,-340 -63,-88 -134,-187 -325,-223zm18 945c-143,-28 -237,-167 -209,-311 28,-143 167,-237 311,-209 387,76 520,266 639,435 44,63 83,118 153,120 146,5 260,127 255,273 -5,146 -127,260 -273,255 -334,-12 -444,-168 -567,-344 -61,-87 -130,-185 -308,-220zm18 944c-143,-30 -235,-170 -205,-313 30,-143 170,-235 313,-205 373,78 502,267 618,435 43,62 81,117 144,120 146,6 259,129 254,274 -6,146 -129,259 -274,254 -328,-14 -436,-171 -558,-348 -59,-86 -126,-183 -291,-218zm18 944c-142,-31 -232,-172 -201,-315 31,-142 172,-232 315,-201 359,80 485,268 598,436 41,61 78,116 135,119 146,7 258,131 252,276 -7,146 -131,258 -276,252 -322,-16 -429,-174 -549,-353 -57,-85 -122,-181 -273,-214zm18 945c-142,-33 -231,-175 -198,-318 33,-142 175,-231 318,-198 345,81 468,269 579,437 40,61 76,116 125,119 146,8 257,133 249,278 -8,146 -133,257 -278,249 -317,-18 -422,-178 -539,-357 -55,-84 -117,-179 -256,-211zm17 944c-142,-35 -228,-179 -193,-321 35,-142 179,-228 321,-193 330,83 449,269 557,436 39,61 74,116 117,119 146,9 257,135 247,281 -9,146 -135,257 -281,247 -310,-20 -414,-181 -529,-361 -54,-84 -113,-177 -240,-209zm130 907c1,-146 119,-263 265,-263 146,1 263,119 263,265l-117 21538c-1,146 -119,263 -265,263 -146,-1 -263,-119 -263,-265l117 -21538zm114 -26807c365,-10 699,128 945,360 246,233 403,559 413,924 10,365 -128,699 -360,945 -233,246 -559,403 -924,413 -365,10 -699,-128 -945,-360 -246,-233 -403,-559 -413,-924 -10,-365 128,-699 360,-945 233,-246 559,-403 924,-413zm582 745c-148,-140 -349,-223 -568,-217 -219,6 -414,100 -554,248 -140,148 -223,349 -217,568 6,219 100,414 248,554 148,140 349,223 568,217 219,-6 414,-100 554,-248 140,-148 223,-349 217,-568 -6,-219 -100,-414 -248,-554z"/></g><text x="0" y="60015" fill="#FFF" font-size="5px" font-weight="bold" font-family="'Helvetica Neue', Helvetica, Arial-Unicode, Arial, Sans-serif">Created by Olena Panasovska</text><text x="0" y="60020" fill="#FFF" font-size="5px" font-weight="bold" font-family="'Helvetica Neue', Helvetica, Arial-Unicode, Arial, Sans-serif">from the Noun Project</text></svg>