<svg xmlns="http://www.w3.org/2000/svg" xmlns:xlink="http://www.w3.org/1999/xlink" version="1.1" x="0px" y="0px" viewBox="0 0 100 125" enable-background="new 0 0 100 100" xml:space="preserve"><path fill="#000000" d="M43.1,29.7c-0.4-0.4-0.6-0.9-0.6-1.4c0-0.5,0.2-1,0.6-1.4c0.8-0.7,2.1-0.7,2.8,0c0.4,0.4,0.6,0.9,0.6,1.4  c0,0.5-0.2,1-0.6,1.4c-0.4,0.4-0.9,0.6-1.4,0.6C44,30.3,43.5,30.1,43.1,29.7z M55.5,30.3c0.5,0,1-0.2,1.4-0.6  c0.4-0.4,0.6-0.9,0.6-1.4c0-0.5-0.2-1.1-0.6-1.4c-0.7-0.7-2.1-0.7-2.8,0c-0.4,0.4-0.6,0.9-0.6,1.4c0,0.5,0.2,1,0.6,1.4  C54.4,30.1,54.9,30.3,55.5,30.3z M34.3,27c0-8.6,7-15.7,15.7-15.7s15.7,7,15.7,15.7c0,8.9-7.3,16.7-15.7,16.7S34.3,35.9,34.3,27z   M40.3,20.6c0.1,0,0.1,0,0.2,0.1c0.2,0.1,2.2,1,4.8-1.5c0.8-0.8,2-0.8,2.8,0c1.6,1.6,3.8,1.8,6.6,1.9c1.8,0.1,3.7,0.3,5.7,0.8  c-1.9-3.8-5.9-6.5-10.4-6.5C46,15.4,42.4,17.4,40.3,20.6z M38.3,27c0,6.8,5.5,12.7,11.7,12.7S61.7,33.8,61.7,27c0-0.2,0-0.3,0-0.5  c-2.3-1.2-4.8-1.4-7.2-1.5c-2.6-0.2-5.4-0.4-7.7-1.9c-3.9,2.9-7.3,1.5-8.1,1.1C38.5,25.1,38.3,26.1,38.3,27z M45.6,34.6  c-0.2,0.8,0.2,1.6,1,1.9c0.9,0.3,2.2,0.4,3.5,0.4c1.3,0,2.5-0.1,3.4-0.4c0.8-0.3,1.2-1.1,1-1.9s-1.1-1.2-1.9-1  c-1.2,0.4-3.8,0.4-5.1,0C46.6,33.3,45.8,33.8,45.6,34.6z M98.4,32.6c-0.2,0.9-1,1.5-1.9,1.5c-0.2,0-0.3,0-0.5-0.1l-2-0.5  C93.9,40.2,88.4,46,82.1,46c-6.3,0-11.8-5.8-11.9-12.5L68,34.1c-0.2,0-0.3,0.1-0.5,0.1c-0.9,0-1.7-0.6-1.9-1.5  c-0.3-1.1,0.4-2.2,1.5-2.4l0.7-0.2l-0.5-0.4c-0.8-0.7-0.9-2-0.2-2.8c0.7-0.8,2-0.9,2.8-0.2l1.6,1.4c2-3.9,6-6.5,10.6-6.5  c4.6,0,8.5,2.6,10.5,6.4l1.4-1.2c0.8-0.7,2.1-0.6,2.8,0.2c0.7,0.8,0.6,2.1-0.2,2.8L96.2,30l0.7,0.2C98,30.5,98.7,31.5,98.4,32.6z   M90,33.3c0-1.2-0.3-2.4-0.8-3.4c0,0-0.1,0-0.1,0C89,29.9,88,30,86.4,30c-2.8,0-7.2-0.2-10.7-1.4c-1,1.3-1.6,2.9-1.6,4.7  c0,4.5,3.8,8.7,7.9,8.7S90,37.9,90,33.3z M79.7,34.2c0-0.4-0.2-0.8-0.4-1.1c-0.6-0.6-1.6-0.6-2.1,0c-0.3,0.3-0.4,0.7-0.4,1.1  c0,0.4,0.1,0.8,0.4,1.1c0.3,0.3,0.7,0.4,1.1,0.4c0.4,0,0.8-0.2,1.1-0.4C79.5,35,79.7,34.6,79.7,34.2z M85,33.2  c-0.3,0.3-0.4,0.7-0.4,1.1c0,0.4,0.2,0.8,0.4,1.1c0.3,0.3,0.7,0.4,1.1,0.4c0.4,0,0.8-0.2,1.1-0.4c0.3-0.3,0.4-0.7,0.4-1.1  c0-0.4-0.2-0.8-0.4-1.1C86.6,32.6,85.6,32.6,85,33.2z M84,37.9c-0.9,0.3-2.8,0.3-3.8,0c-0.5-0.2-1.1,0.1-1.2,0.7  c-0.2,0.5,0.1,1.1,0.7,1.2c0.7,0.2,1.6,0.3,2.5,0.3c0.9,0,1.8-0.1,2.5-0.3c0.5-0.2,0.8-0.7,0.6-1.3C85.1,38,84.5,37.7,84,37.9z   M15.5,34.2c0-0.4-0.2-0.8-0.4-1.1c-0.5-0.6-1.6-0.6-2.1,0c-0.3,0.3-0.4,0.7-0.4,1.1c0,0.4,0.2,0.8,0.4,1.1c0.3,0.3,0.7,0.4,1.1,0.4  c0.4,0,0.8-0.2,1.1-0.4C15.4,35,15.5,34.6,15.5,34.2z M20.9,33.2c-0.3,0.3-0.4,0.7-0.4,1.1c0,0.4,0.2,0.8,0.4,1.1  c0.3,0.3,0.7,0.4,1.1,0.4c0.4,0,0.8-0.2,1.1-0.4c0.3-0.3,0.4-0.7,0.4-1.1c0-0.4-0.2-0.8-0.4-1.1C22.5,32.6,21.5,32.6,20.9,33.2z   M6.1,33.3c0-6.6,5.3-11.9,11.9-11.9s11.9,5.3,11.9,11.9C29.9,40.1,24.3,46,18,46S6.1,40.1,6.1,33.3z M25.9,33.3  c0-0.4,0-0.9-0.1-1.3c0,0-0.1,0-0.1,0L20,30.3c-1.5,0.2-6.2,0.8-9.6,0.6c-0.2,0.8-0.4,1.5-0.4,2.4c0,4.5,3.8,8.7,7.9,8.7  S25.9,37.9,25.9,33.3z M18,25.4c-1.7,0-3.4,0.6-4.7,1.5c3.2-0.1,6.5-0.6,6.5-0.6c0.3,0,0.6,0,0.9,0.1l1.9,0.6  C21.4,26,19.7,25.4,18,25.4z M19.9,37.9c-0.9,0.3-2.8,0.3-3.8,0c-0.5-0.2-1.1,0.1-1.2,0.7c-0.2,0.5,0.1,1.1,0.7,1.2  c0.7,0.2,1.6,0.3,2.5,0.3c0.9,0,1.8-0.1,2.5-0.3c0.5-0.2,0.8-0.7,0.6-1.3C21,38,20.4,37.7,19.9,37.9z M61.6,44.8  c6.5,8.1,6.5,21.7,6.4,27.5l0,0.7c0,5-9.2,8-18,8s-18-3-18-8l0-0.7c0-5.8-0.1-19.4,6.4-27.5c0.4-0.4,0.9-0.7,1.4-0.7  c0.6,0,1.1,0.2,1.5,0.6c1.7,1.6,6.1,2.4,8.6,2.4c2.5-0.1,6.9-0.8,8.6-2.4c0.4-0.4,1-0.6,1.5-0.6C60.7,44,61.2,44.3,61.6,44.8z   M59.5,48.8c-3.6,2-8.8,2.2-9.5,2.2c-0.8,0-5.9-0.2-9.6-2.2C35.9,56,36,67.7,36,72.3l0,0.7c0,1,5.1,4,14,4s14-3,14-4l0-0.7  C64,67.7,64.1,56,59.5,48.8z M26.9,47.5c-0.4-0.4-0.9-0.7-1.4-0.7c-0.6,0-1.1,0.2-1.5,0.6C22.9,48.4,19.8,49,18,49  c-1.5,0-4.8-0.5-6-1.6c-0.4-0.4-0.9-0.6-1.5-0.6c-0.6,0-1.1,0.3-1.4,0.7C4.2,53.7,4.2,63,4.2,67l0,0.5c0,4.2,7.1,6.4,13.8,6.4  c3.2,0,6.6-0.6,9.1-1.5c1-0.4,1.5-1.6,1.2-2.6c-0.4-1-1.6-1.5-2.6-1.2C23.6,69.5,20.8,70,18,70c-5.5,0-9.3-1.7-9.8-2.5l0-0.4  c0-3.2,0-10.4,3-15.5c2.8,1.3,6.3,1.5,6.9,1.5c0.5,0,4-0.1,6.8-1.5c0.6,1.1,1.2,2.3,1.6,3.7c0.3,1.1,1.5,1.6,2.5,1.3  c1.1-0.3,1.6-1.5,1.3-2.5C29.5,51.5,28.3,49.3,26.9,47.5z M89.5,46.8c-0.6,0-1.1,0.2-1.5,0.6C86.9,48.4,83.8,49,82,49  c-1.5,0-4.8-0.5-6-1.6c-0.4-0.4-0.9-0.6-1.5-0.6c-0.6,0-1.1,0.3-1.4,0.7c-1.4,1.8-2.5,3.9-3.3,6.5c-0.3,1.1,0.3,2.2,1.3,2.5  c1.1,0.3,2.2-0.3,2.5-1.3c0.4-1.4,1-2.6,1.6-3.7c2.8,1.3,6.3,1.5,6.9,1.5c0.5,0,4-0.1,6.8-1.5c3,5.1,3,12.2,3,15.5l0,0.4  C91.3,68.2,87.5,70,82,70c-2.8,0-5.6-0.5-7.6-1.2c-1-0.4-2.2,0.1-2.6,1.2s0.1,2.2,1.2,2.6c2.5,1,5.8,1.5,9.1,1.5  c6.7,0,13.8-2.3,13.8-6.4l0-0.5c0-4,0-13.3-4.9-19.5C90.6,47.1,90.1,46.8,89.5,46.8z"/><text x="0" y="115" fill="#000000" font-size="5px" font-weight="bold" font-family="'Helvetica Neue', Helvetica, Arial-Unicode, Arial, Sans-serif">Created by Felix Westphal</text><text x="0" y="120" fill="#000000" font-size="5px" font-weight="bold" font-family="'Helvetica Neue', Helvetica, Arial-Unicode, Arial, Sans-serif">from the Noun Project</text></svg>