<svg xmlns="http://www.w3.org/2000/svg" xmlns:xlink="http://www.w3.org/1999/xlink" version="1.1" x="0px" y="0px" viewBox="0 0 100 125" enable-background="new 0 0 100 100" xml:space="preserve"><line fill="none" stroke="#000000" stroke-width="3" stroke-linecap="round" stroke-linejoin="round" stroke-miterlimit="10" x1="19.581" y1="74.961" x2="13.25" y2="60.209"/><path fill="none" stroke="#000000" stroke-width="3" stroke-linecap="round" stroke-linejoin="round" stroke-miterlimit="10" d="  M43.789,80.899c-7.646-1.488-20.079-11.666-29.146-3l-5.98-14.804c0,0,15.541-10.117,20.267-10.843  c4.724-0.729,13.026,2.41,20.329,6.545c7.305,4.134,13.545,1.317,18.488,5.518c4.944,4.201-11.563,7.918-14.943,7.218  c-3.381-0.702-6.274-3.483-9.405-3.195"/><path fill="none" stroke="#000000" stroke-width="3" stroke-linecap="round" stroke-linejoin="round" stroke-miterlimit="10" d="  M69.15,65.872c0,0,16.019-15.235,18.762-10.62c0,0,0.781,0.594,1.899,4.97c0,0-11.196,7.507-15.699,12.32  c-9.537,10.192-22.205,9.509-26.797,8.852"/><path fill="none" stroke="#000000" stroke-width="3" stroke-linecap="round" stroke-linejoin="round" stroke-miterlimit="10" d="  M33.99,68.163c2.593-0.154,4.49,0.024,4.49,0.024"/><path fill="none" stroke="#000000" stroke-width="3" stroke-linecap="round" stroke-linejoin="round" stroke-miterlimit="10" d="  M45.225,37.615c-0.705-1.582-1.119-3.135-1.119-4.602c0-9.897,11.482-16.679,18.81-10.388l0,0  c8.309-6.171,18.458,0.491,18.458,10.388c0,6.888-8.92,15.689-14.348,20.405l-1.618,1.375c-1.489,1.239-2.456,1.966-2.456,1.966  s-8.015-5.89-13.591-12.733"/><polyline fill="none" stroke="#000000" stroke-width="3" stroke-linecap="round" stroke-linejoin="round" stroke-miterlimit="10" points="  38.708,41.069 53.927,41.069 58.312,30.878 64.164,43.285 66.392,33.593 76.743,33.612 "/><text x="0" y="115" fill="#000000" font-size="5px" font-weight="bold" font-family="'Helvetica Neue', Helvetica, Arial-Unicode, Arial, Sans-serif">Created by IconTrack</text><text x="0" y="120" fill="#000000" font-size="5px" font-weight="bold" font-family="'Helvetica Neue', Helvetica, Arial-Unicode, Arial, Sans-serif">from the Noun Project</text></svg>