<svg xmlns="http://www.w3.org/2000/svg" viewBox="0 0 100 125" x="0px" y="0px"><g fill="#000000"><path d="M59.7 47c.2 0 .5-.1.7-.2l9.5-7.6c.5-.4.5-1.1.2-1.5-.4-.5-1.1-.5-1.5-.2L59 45.1c-.5.4-.5 1.1-.2 1.5.2.3.6.4.9.4zM72.7 53l-12.1-1.2c-.6-.1-1.1.4-1.2 1-.1.6.4 1.1 1 1.2l12.1 1.2h.1c.6 0 1-.4 1.1-1 0-.6-.4-1.2-1-1.2zM58.8 59c-.4-.4-1.1-.4-1.5 0-.4.4-.4 1.1 0 1.5l8.5 8.7c.2.2.5.3.8.3.3 0 .5-.1.8-.3.4-.4.4-1.1 0-1.5L58.8 59zM52.7 8.2H41.9c.6 15.4-.8 20.4-1.6 22-.2.2-.4.5-.5.7-1.6 2.5-2.7 6.1-6.4 9-5.1 4 5.1 11.8 11.4 11.8 6.3 0 10.8-5 11.4-11.8v-.6c1.4-5.7-3.5-31.1-3.5-31.1zM41.2 53.5c-6.8 0-12.3 2-12.3 4.4 0 0-.3 5.5 3.1 10.6 3.3 5 2.2 21.9 2.2 21.9-.8 1.9 12.4 1.4 12.4 1.4s3.2-23.6 6.5-32.7c.3-.4.5-.8.5-1.2-.1-2.5-5.6-4.4-12.4-4.4z"/><path d="M26.5 90.7h2.3s3.1-9.1 3.7-12.4C33.1 75 28.9 67 28.9 67c-3.5 5.1-2.4 23.7-2.4 23.7z"/></g><text x="0" y="115" fill="#000000" font-size="5px" font-weight="bold" font-family="'Helvetica Neue', Helvetica, Arial-Unicode, Arial, Sans-serif">Created by Academic Technologies, FoMD</text><text x="0" y="120" fill="#000000" font-size="5px" font-weight="bold" font-family="'Helvetica Neue', Helvetica, Arial-Unicode, Arial, Sans-serif">from the Noun Project</text></svg>