<svg xmlns="http://www.w3.org/2000/svg" xmlns:xlink="http://www.w3.org/1999/xlink" viewBox="0 0 24 28.75" version="1.1" x="0px" y="0px"><title>143 - Health (Solid)</title><desc>Created with Sketch.</desc><g stroke="none" stroke-width="1" fill="none" fill-rule="evenodd"><g fill="#000000"><path d="M1.2967,12.004 L4.9367,12.004 L6.8107,7.929 C6.9767,7.567 7.3727,7.329 7.7427,7.347 C8.1407,7.356 8.4967,7.602 8.6457,7.971 L10.4367,12.395 L11.5597,10.397 C11.7347,10.087 12.0607,9.893 12.4167,9.887 C12.7947,9.89 13.0787,10.052 13.2657,10.336 L14.4527,4.752 C14.5527,4.282 14.9477,3.941 15.4567,3.961 C15.9377,3.973 16.3417,4.326 16.4177,4.802 L17.5697,12.004 L22.7057,12.004 C23.1727,11.168 23.5297,10.28 23.7517,9.351 C24.0907,7.932 23.9977,7.023 23.9577,6.766 C23.5897,2.846 20.7567,0.004 17.2107,0.004 C15.1667,0.004 13.2217,0.961 11.9447,2.579 C10.6897,0.938 8.8297,0.004 6.7917,0.004 C3.2457,0.004 0.4127,2.845 0.0437,6.766 C0.0047,7.023 -0.0883,7.932 0.2497,9.351 C0.4727,10.28 0.8297,11.168 1.2967,12.004"/><path d="M16.717,14.004 C16.226,14.004 15.807,13.647 15.73,13.162 L15.292,10.424 L14.696,13.228 C14.611,13.629 14.288,13.938 13.884,14.006 C13.476,14.075 13.072,13.888 12.862,13.537 L12.462,12.874 L11.162,15.187 C10.985,15.504 10.65,15.697 10.29,15.697 C10.269,15.697 10.248,15.697 10.227,15.695 C9.843,15.671 9.508,15.429 9.363,15.073 L7.66,10.867 L6.486,13.422 C6.322,13.776 5.968,14.004 5.577,14.004 L2.736,14.004 C3.006,14.302 3.288,14.593 3.594,14.867 L12.001,22.342 L20.411,14.865 C20.716,14.592 20.997,14.302 21.267,14.004 L16.717,14.004 Z"/></g></g><text x="0" y="38" fill="#000000" font-size="5px" font-weight="bold" font-family="'Helvetica Neue', Helvetica, Arial-Unicode, Arial, Sans-serif">Created by Ben Davis</text><text x="0" y="43" fill="#000000" font-size="5px" font-weight="bold" font-family="'Helvetica Neue', Helvetica, Arial-Unicode, Arial, Sans-serif">from the Noun Project</text></svg>